<svg width="302" height="303" viewBox="0 0 302 303" fill="none" xmlns="http://www.w3.org/2000/svg">
<g clip-path="url(#clip0_2_84131)">
<path d="M217.052 106.322L139.809 91.6355C136.561 91.0178 133.206 91.2656 130.084 92.3539C126.961 93.4421 124.179 95.3327 122.018 97.8358L70.5336 157.464C69.2812 157.903 68.2541 158.821 67.6773 160.016C67.1006 161.212 67.0213 162.587 67.4569 163.84L95.0176 242.799C95.4564 244.052 96.3742 245.079 97.5695 245.656C98.7649 246.232 100.14 246.312 101.394 245.876L247.912 194.733C249.164 194.294 250.191 193.376 250.768 192.181C251.345 190.986 251.424 189.611 250.989 188.357L223.428 109.398C222.989 108.146 222.071 107.119 220.876 106.542C219.681 105.965 218.306 105.886 217.052 106.322ZM250.433 188.551C250.816 189.657 250.745 190.87 250.237 191.924C249.728 192.979 248.822 193.789 247.718 194.177L101.2 245.32C100.094 245.703 98.8804 245.633 97.8259 245.124C96.7714 244.616 95.9615 243.71 95.5736 242.605L68.013 163.646C67.6284 162.54 67.6982 161.327 68.2071 160.272C68.716 159.217 69.6225 158.407 70.7277 158.02L122.212 98.3919C124.373 95.8888 127.155 93.9982 130.278 92.9099C133.401 91.8216 136.755 91.5739 140.003 92.1916L217.246 106.878C218.352 106.493 219.566 106.563 220.62 107.072C221.675 107.581 222.485 108.487 222.872 109.592L250.433 188.551Z" fill="#3F3D56"/>
<path d="M159.47 176.537C158.986 176.708 158.477 176.795 157.964 176.795L157.869 176.795L157.787 176.614C157.744 176.658 157.7 176.701 157.655 176.743L157.607 176.787L157.543 176.782C157.408 176.771 157.271 176.754 157.137 176.729L95.9116 165.833L75.4126 107.106C74.9382 105.742 75.0242 104.245 75.6519 102.944C76.2796 101.643 77.3976 100.645 78.7607 100.167L174.957 66.5896C176.321 66.1152 177.818 66.2012 179.119 66.8289C180.419 67.4566 181.418 68.5746 181.896 69.9377L202.421 128.74L202.364 128.805L161.416 175.236C160.889 175.829 160.219 176.277 159.47 176.537Z" fill="white"/>
<path d="M159.518 176.676C159.019 176.852 158.493 176.942 157.963 176.942L157.774 176.941L157.739 176.864L157.66 176.938L157.531 176.928C157.391 176.917 157.25 176.899 157.11 176.874L95.8008 165.963L75.2734 107.154C74.7861 105.753 74.8745 104.216 75.5192 102.88C76.1638 101.544 77.3121 100.518 78.712 100.028L174.908 66.4503C176.309 65.963 177.846 66.0514 179.182 66.6961C180.518 67.3407 181.544 68.4889 182.034 69.8889L202.588 128.773L161.526 175.333C160.982 175.945 160.291 176.407 159.518 176.676ZM158.152 176.349C159.277 176.286 160.331 175.78 161.084 174.943L201.918 128.642L181.478 70.083C181.04 68.8304 180.122 67.803 178.926 67.2262C177.731 66.6494 176.356 66.5704 175.102 67.0063L78.9061 100.584C77.6535 101.023 76.6261 101.94 76.0493 103.136C75.4725 104.331 75.3935 105.706 75.8295 106.96L96.2432 165.443L100.23 166.152L157.214 176.294C157.292 176.308 157.369 176.32 157.447 176.328C157.503 176.273 157.557 176.216 157.609 176.157L157.909 175.815L158.152 176.349Z" fill="#3F3D56"/>
<path d="M221.263 107.153L205.046 125.539L202.253 128.707L161.305 175.138C160.795 175.712 160.146 176.145 159.421 176.397C158.953 176.562 158.46 176.647 157.964 176.647C157.827 176.65 157.69 176.646 157.554 176.634C157.423 176.624 157.292 176.607 157.162 176.584L100.179 166.441L96.022 165.703L67.7813 160.676C67.7043 160.662 67.636 160.618 67.5913 160.553C67.5467 160.489 67.5292 160.41 67.5427 160.332C67.5565 160.256 67.6002 160.188 67.6642 160.143C67.7282 160.099 67.8072 160.081 67.8839 160.095L95.7988 165.063L99.9554 165.802L157.265 176.002C157.455 176.036 157.647 176.055 157.84 176.06C157.922 176.063 158.006 176.061 158.089 176.057C158.616 176.037 159.133 175.911 159.61 175.686C160.087 175.46 160.513 175.141 160.863 174.746L202.031 128.07L204.824 124.902L220.822 106.765C220.847 106.736 220.878 106.712 220.913 106.695C220.947 106.678 220.985 106.668 221.024 106.666C221.062 106.663 221.101 106.668 221.137 106.681C221.174 106.693 221.208 106.713 221.237 106.738C221.266 106.764 221.289 106.795 221.306 106.829C221.323 106.864 221.333 106.902 221.336 106.94C221.338 106.979 221.333 107.018 221.321 107.054C221.308 107.091 221.288 107.124 221.263 107.153Z" fill="#3F3D56"/>
<path d="M100.846 112.887L93.0616 115.604C92.4717 115.81 91.8242 115.773 91.2614 115.502C90.6987 115.23 90.2669 114.746 90.061 114.156C89.8551 113.566 89.892 112.919 90.1635 112.356C90.435 111.793 90.919 111.362 91.5089 111.156L99.2935 108.439C99.8834 108.233 100.531 108.269 101.094 108.541C101.656 108.813 102.088 109.296 102.294 109.886C102.5 110.476 102.463 111.124 102.192 111.686C101.92 112.249 101.436 112.681 100.846 112.887Z" fill="#FC5C04"/>
<path d="M112.641 117.191L95.6812 123.111C95.0913 123.317 94.4438 123.28 93.8811 123.009C93.3184 122.737 92.8866 122.253 92.6807 121.663C92.4748 121.073 92.5116 120.426 92.7831 119.863C93.0547 119.3 93.5386 118.869 94.1285 118.663L111.088 112.743C111.678 112.537 112.325 112.574 112.888 112.845C113.451 113.117 113.883 113.601 114.088 114.191C114.294 114.781 114.257 115.428 113.986 115.991C113.714 116.554 113.231 116.985 112.641 117.191Z" fill="#E6E6E6"/>
<path d="M167.01 120.671L118.912 137.46C118.323 137.666 117.675 137.629 117.112 137.357C116.55 137.086 116.118 136.602 115.912 136.012C115.706 135.422 115.743 134.774 116.014 134.212C116.286 133.649 116.77 133.217 117.36 133.011L165.458 116.223C166.048 116.017 166.695 116.053 167.258 116.325C167.821 116.597 168.252 117.08 168.458 117.67C168.664 118.26 168.627 118.908 168.356 119.47C168.084 120.033 167.6 120.465 167.01 120.671Z" fill="#FC5C04"/>
<path d="M174.467 127.736L117.194 147.727C116.604 147.933 115.957 147.896 115.394 147.624C114.831 147.353 114.399 146.869 114.194 146.279C113.988 145.689 114.025 145.041 114.296 144.479C114.568 143.916 115.052 143.484 115.641 143.278L172.914 123.287C173.504 123.081 174.152 123.118 174.714 123.39C175.277 123.661 175.709 124.145 175.915 124.735C176.121 125.325 176.084 125.972 175.812 126.535C175.541 127.098 175.057 127.53 174.467 127.736Z" fill="#E6E6E6"/>
<path d="M177.379 136.076L120.106 156.068C119.516 156.273 118.868 156.237 118.306 155.965C117.743 155.694 117.311 155.21 117.105 154.62C116.899 154.03 116.936 153.382 117.208 152.82C117.479 152.257 117.963 151.825 118.553 151.619L175.826 131.628C176.416 131.422 177.063 131.459 177.626 131.73C178.189 132.002 178.621 132.486 178.827 133.076C179.032 133.666 178.996 134.313 178.724 134.876C178.453 135.439 177.969 135.87 177.379 136.076Z" fill="#E6E6E6"/>
</g>
<defs>
<clipPath id="clip0_2_84131">
<rect width="165.2" height="145.175" fill="white" transform="translate(48.8246 110.46) rotate(-19.2416)"/>
</clipPath>
</defs>
</svg>
