<svg width="457" height="843" viewBox="0 0 457 843" fill="none" xmlns="http://www.w3.org/2000/svg">
<path d="M3.49976 2C3.49976 1.17157 2.82818 0.5 1.99976 0.5C1.17133 0.5 0.499756 1.17157 0.499756 2L3.49976 2ZM448 843L456.613 827.973L439.292 828.028L448 843ZM0.532523 14.3921C0.536938 15.2206 1.21208 15.8885 2.0405 15.8841C2.86891 15.8797 3.5369 15.2046 3.53248 14.3762L0.532523 14.3921ZM3.79231 38.4256C3.77868 37.5973 3.09615 36.9369 2.26784 36.9505C1.43952 36.9641 0.779091 37.6467 0.792721 38.475L3.79231 38.4256ZM1.30816 61.6379C1.33155 62.466 2.02181 63.1184 2.84991 63.095C3.678 63.0716 4.33035 62.3813 4.30696 61.5532L1.30816 61.6379ZM5.1126 84.7867C5.07839 83.959 4.37965 83.3158 3.55193 83.35C2.72421 83.3842 2.08095 84.0829 2.11516 84.9106L5.1126 84.7867ZM3.29174 109.037C3.33846 109.864 4.04684 110.497 4.87395 110.45C5.70106 110.403 6.33369 109.695 6.28697 108.868L3.29174 109.037ZM7.76739 131.839C7.7073 131.012 6.98879 130.391 6.16254 130.451C5.3363 130.511 4.71521 131.23 4.7753 132.056L7.76739 131.839ZM6.7127 155.694C6.78827 156.519 7.51831 157.126 8.34328 157.051C9.16825 156.975 9.77576 156.245 9.70019 155.42L6.7127 155.694ZM12.1093 179.001C12.0161 178.177 11.2732 177.586 10.4501 177.679C9.62688 177.772 9.03514 178.515 9.12835 179.338L12.1093 179.001ZM11.9674 202.06C12.0801 202.88 12.8367 203.454 13.6575 203.342C14.4782 203.229 15.0522 202.472 14.9396 201.652L11.9674 202.06ZM18.5651 225.55C18.4287 224.733 17.6556 224.181 16.8385 224.318C16.0214 224.454 15.4696 225.227 15.6061 226.044L18.5651 225.55ZM19.6981 248.401C19.8606 249.213 20.6508 249.74 21.4632 249.577C22.2755 249.415 22.8023 248.624 22.6398 247.812L19.6981 248.401ZM27.8658 271.497C27.6704 270.692 26.8593 270.197 26.0543 270.393C25.2493 270.588 24.7551 271.399 24.9505 272.204L27.8658 271.497ZM30.9024 294.514C31.1351 295.309 31.9682 295.765 32.7633 295.532C33.5584 295.299 34.0143 294.466 33.7816 293.671L30.9024 294.514ZM41.0993 316.269C40.8202 315.489 39.9616 315.083 39.1816 315.363C38.4016 315.642 37.9956 316.5 38.2748 317.28L41.0993 316.269ZM47.0225 339.275C47.3573 340.033 48.243 340.376 49.0008 340.041C49.7585 339.706 50.1014 338.821 49.7666 338.063L47.0225 339.275ZM59.9961 358.764C59.5952 358.039 58.6825 357.777 57.9576 358.178C57.2326 358.579 56.97 359.491 57.3709 360.216L59.9961 358.764ZM69.8688 380.186C70.3482 380.861 71.2846 381.02 71.9601 380.541C72.6357 380.061 72.7947 379.125 72.3152 378.449L69.8688 380.186ZM87.1115 396.589C86.5435 395.986 85.5942 395.958 84.9911 396.526C84.388 397.094 84.3595 398.043 84.9275 398.646L87.1115 396.589ZM102.494 414.604C103.15 415.11 104.092 414.988 104.598 414.332C105.104 413.676 104.982 412.734 104.326 412.228L102.494 414.604ZM123.828 424.842C123.097 424.45 122.188 424.725 121.797 425.455C121.406 426.186 121.68 427.095 122.411 427.486L123.828 424.842ZM144.153 437.048C144.934 437.325 145.791 436.916 146.068 436.135C146.345 435.354 145.937 434.497 145.156 434.22L144.153 437.048ZM167.612 440.615C166.803 440.434 166.001 440.943 165.82 441.751C165.639 442.56 166.148 443.362 166.956 443.543L167.612 440.615ZM190.254 447.67C191.075 447.783 191.832 447.209 191.945 446.389C192.058 445.568 191.484 444.811 190.663 444.698L190.254 447.67ZM214.001 447.291C213.176 447.216 212.446 447.824 212.371 448.649C212.296 449.475 212.904 450.204 213.729 450.279L214.001 447.291ZM237.222 452.22C238.048 452.287 238.771 451.671 238.838 450.845C238.904 450.019 238.288 449.296 237.463 449.23L237.222 452.22ZM260.958 451.345C260.134 451.258 259.396 451.855 259.309 452.679C259.221 453.502 259.818 454.241 260.642 454.328L260.958 451.345ZM283.875 457.455C284.692 457.594 285.467 457.045 285.606 456.228C285.745 455.412 285.196 454.637 284.379 454.498L283.875 457.455ZM307.505 459.605C306.707 459.382 305.879 459.847 305.656 460.645C305.433 461.443 305.898 462.271 306.696 462.494L307.505 459.605ZM328.64 470.3C329.398 470.635 330.284 470.293 330.619 469.535C330.954 468.778 330.612 467.892 329.854 467.556L328.64 470.3ZM350.649 478.941C349.96 478.481 349.028 478.668 348.569 479.357C348.109 480.046 348.296 480.978 348.985 481.437L350.649 478.941ZM367.052 495.934C367.651 496.506 368.6 496.485 369.173 495.887C369.745 495.288 369.724 494.338 369.125 493.766L367.052 495.934ZM384.864 511.457C384.363 510.798 383.421 510.67 382.762 511.172C382.103 511.674 381.975 512.615 382.477 513.274L384.864 511.457ZM395.331 532.755C395.743 533.473 396.66 533.722 397.378 533.309C398.097 532.897 398.345 531.981 397.933 531.262L395.331 532.755ZM408.718 552.658C408.382 551.901 407.496 551.559 406.739 551.895C405.981 552.23 405.64 553.116 405.975 553.874L408.718 552.658ZM414.44 575.316C414.715 576.097 415.571 576.508 416.353 576.233C417.134 575.959 417.545 575.103 417.27 574.321L414.44 575.316ZM424.311 596.678C424.086 595.881 423.258 595.416 422.46 595.641C421.663 595.866 421.199 596.694 421.423 597.492L424.311 596.678ZM427.328 620.885C427.511 621.693 428.314 622.201 429.122 622.018C429.93 621.836 430.437 621.033 430.255 620.225L427.328 620.885ZM434.808 642.576C434.659 641.761 433.877 641.222 433.062 641.371C432.247 641.521 431.708 642.302 431.857 643.117L434.808 642.576ZM435.775 666.964C435.896 667.784 436.657 668.351 437.477 668.231C438.297 668.111 438.864 667.349 438.744 666.53L435.775 666.964ZM441.722 689.154C441.626 688.331 440.88 687.743 440.057 687.84C439.235 687.936 438.646 688.682 438.743 689.505L441.722 689.154ZM441.255 713.617C441.33 714.442 442.06 715.049 442.885 714.974C443.71 714.898 444.318 714.168 444.242 713.343L441.255 713.617ZM446.079 736.11C446.02 735.283 445.303 734.66 444.477 734.719C443.651 734.777 443.028 735.494 443.086 736.32L446.079 736.11ZM444.517 759.951C444.559 760.778 445.265 761.414 446.092 761.372C446.919 761.33 447.556 760.625 447.513 759.797L444.517 759.951ZM448.528 783.612C448.499 782.784 447.805 782.136 446.977 782.164C446.149 782.193 445.501 782.887 445.529 783.715L448.528 783.612ZM446.148 806.634C446.164 807.462 446.849 808.12 447.678 808.104C448.506 808.087 449.164 807.402 449.147 806.574L446.148 806.634ZM449.461 830.589C449.455 829.761 448.779 829.094 447.951 829.099C447.123 829.104 446.455 829.78 446.461 830.609L449.461 830.589ZM0.499756 2C0.499755 6.17007 0.510714 10.3007 0.532523 14.3921L3.53248 14.3762C3.5107 10.2901 3.49976 6.16482 3.49976 2L0.499756 2ZM0.792721 38.475C0.922281 46.3483 1.09438 54.0682 1.30816 61.6379L4.30696 61.5532C4.09353 53.9956 3.92169 46.2875 3.79231 38.4256L0.792721 38.475ZM2.11516 84.9106C2.45536 93.1402 2.84797 101.181 3.29174 109.037L6.28697 108.868C5.84408 101.027 5.4522 93.0018 5.1126 84.7867L2.11516 84.9106ZM4.7753 132.056C5.36346 140.143 6.00978 148.021 6.7127 155.694L9.70019 155.42C8.99905 147.766 8.35425 139.908 7.76739 131.839L4.7753 132.056ZM9.12835 179.338C10.0117 187.139 10.9587 194.711 11.9674 202.06L14.9396 201.652C13.9342 194.327 12.9901 186.779 12.1093 179.001L9.12835 179.338ZM15.6061 226.044C16.8956 233.765 18.2605 241.214 19.6981 248.401L22.6398 247.812C21.2088 240.658 19.8496 233.241 18.5651 225.55L15.6061 226.044ZM24.9505 272.204C26.8392 279.984 28.8246 287.415 30.9024 294.514L33.7816 293.671C31.7177 286.619 29.7441 279.233 27.8658 271.497L24.9505 272.204ZM38.2748 317.28C41.0628 325.071 43.9814 332.392 47.0225 339.275L49.7666 338.063C46.7565 331.25 43.8645 323.996 41.0993 316.269L38.2748 317.28ZM57.3709 360.216C61.3742 367.454 65.545 374.093 69.8688 380.186L72.3152 378.449C68.0599 372.454 63.9483 365.91 59.9961 358.764L57.3709 360.216ZM84.9275 398.646C90.5922 404.661 96.4571 409.949 102.494 414.604L104.326 412.228C98.4158 407.671 92.6685 402.49 87.1115 396.589L84.9275 398.646ZM122.411 427.486C129.503 431.286 136.764 434.428 144.153 437.048L145.156 434.22C137.896 431.646 130.774 428.564 123.828 424.842L122.411 427.486ZM166.956 443.543C174.647 445.264 182.427 446.593 190.254 447.67L190.663 444.698C182.899 443.629 175.203 442.314 167.612 440.615L166.956 443.543ZM213.729 450.279C221.56 450.991 229.411 451.593 237.222 452.22L237.463 449.23C229.637 448.601 221.811 448.001 214.001 447.291L213.729 450.279ZM260.642 454.328C268.471 455.157 276.227 456.152 283.875 457.455L284.379 454.498C276.651 453.181 268.829 452.178 260.958 451.345L260.642 454.328ZM306.696 462.494C314.178 464.588 321.505 467.141 328.64 470.3L329.854 467.556C322.572 464.332 315.107 461.732 307.505 459.605L306.696 462.494ZM348.985 481.437C355.211 485.586 361.244 490.38 367.052 495.934L369.125 493.766C363.189 488.089 357.019 483.186 350.649 478.941L348.985 481.437ZM382.477 513.274C386.942 519.14 391.233 525.611 395.331 532.755L397.933 531.262C393.774 524.012 389.412 517.432 384.864 511.457L382.477 513.274ZM405.975 553.874C408.933 560.548 411.758 567.684 414.44 575.316L417.27 574.321C414.564 566.619 411.71 559.409 408.718 552.658L405.975 553.874ZM421.423 597.492C423.507 604.89 425.478 612.68 427.328 620.885L430.255 620.225C428.393 611.972 426.41 604.13 424.311 596.678L421.423 597.492ZM431.857 643.117C433.256 650.747 434.563 658.691 435.775 666.964L438.744 666.53C437.527 658.223 436.213 650.243 434.808 642.576L431.857 643.117ZM438.743 689.505C439.657 697.277 440.495 705.311 441.255 713.617L444.242 713.343C443.481 705.014 442.64 696.954 441.722 689.154L438.743 689.505ZM443.086 736.32C443.625 743.983 444.103 751.858 444.517 759.951L447.513 759.797C447.098 751.686 446.619 743.792 446.079 736.11L443.086 736.32ZM445.529 783.715C445.786 791.181 445.992 798.82 446.148 806.634L449.147 806.574C448.992 798.746 448.785 791.093 448.528 783.612L445.529 783.715Z" fill="#FF5D04"/>
<path d="M33.5769 205.659L38.8828 202.131C39.3318 201.832 39.6932 201.405 39.92 200.906C40.1468 200.407 40.2286 199.858 40.1548 199.332L39.3772 193.621L40.6619 193.343C41.0027 193.269 41.3105 193.059 41.5177 192.76C41.7249 192.46 41.8145 192.094 41.7668 191.744L38.349 166.642C38.2536 165.942 37.8914 165.328 37.3421 164.937C36.7927 164.545 36.1013 164.408 35.4198 164.556L17.4337 168.446C16.7522 168.593 16.1366 169.013 15.7222 169.613C15.3078 170.213 15.1286 170.943 15.224 171.644L15.6063 174.452C14.5405 174.982 13.6508 175.855 13.0773 176.933C12.5038 178.011 12.2793 179.233 12.4391 180.407C12.5988 181.58 13.1338 182.638 13.9597 183.414C14.7856 184.189 15.8553 184.638 17.0003 184.69L18.1246 192.948C17.0588 193.478 16.1691 194.351 15.5956 195.429C15.0222 196.507 14.7976 197.729 14.9574 198.903C15.1172 200.076 15.6522 201.134 16.478 201.91C17.3039 202.685 18.3737 203.134 19.5187 203.186L19.9009 205.994C19.9964 206.695 20.3586 207.308 20.9079 207.699C21.4572 208.091 22.1487 208.228 22.8302 208.08L33.1079 205.857C33.2729 205.822 33.4321 205.755 33.5769 205.659ZM15.0186 179.849C14.9474 179.326 15.0286 178.783 15.2517 178.287C15.4749 177.792 15.8301 177.366 16.2724 177.065C16.7146 176.763 17.2241 176.599 17.7365 176.593C18.2488 176.587 18.7409 176.74 19.1505 177.032C19.5602 177.324 19.869 177.741 20.0379 178.233C20.2068 178.724 20.2283 179.266 20.0996 179.791C19.9708 180.316 19.6977 180.8 19.3147 181.181C18.9317 181.563 18.456 181.825 17.9478 181.935C17.2663 182.083 16.5749 181.946 16.0255 181.554C15.4762 181.163 15.114 180.55 15.0186 179.849ZM25.5018 169.421L35.7796 167.198L39.0174 190.979L28.7397 193.202L25.5018 169.421ZM17.5369 198.345C17.4658 197.822 17.5469 197.279 17.7701 196.783C17.9933 196.288 18.3484 195.862 18.7907 195.561C19.233 195.259 19.7425 195.095 20.2548 195.089C20.7671 195.083 21.2592 195.236 21.6689 195.528C22.0785 195.82 22.3873 196.237 22.5563 196.729C22.7252 197.22 22.7466 197.762 22.6179 198.287C22.4892 198.812 22.216 199.296 21.833 199.677C21.45 200.059 20.9743 200.321 20.4661 200.431C19.7847 200.579 19.0932 200.442 18.5439 200.05C17.9946 199.659 17.6323 199.046 17.5369 198.345ZM32.9536 195.01L36.8078 194.177L37.5853 199.887L33.947 202.306L32.9536 195.01Z" fill="#FDCAAE"/>
</svg>
