<svg width="457" height="552" viewBox="0 0 457 552" fill="none" xmlns="http://www.w3.org/2000/svg">
<path d="M3.49976 2C3.49976 1.17157 2.82818 0.5 1.99976 0.5C1.17133 0.5 0.499756 1.17157 0.499756 2L3.49976 2ZM448 552L456.544 536.934L439.224 537.067L448 552ZM0.581296 14.7319C0.59204 15.5603 1.27227 16.2231 2.10062 16.2124C2.92898 16.2016 3.59179 15.5214 3.58104 14.693L0.581296 14.7319ZM4.22357 38.9412C4.18985 38.1134 3.4915 37.4698 2.66376 37.5035C1.83602 37.5372 1.19234 38.2355 1.22606 39.0633L4.22357 38.9412ZM2.60169 63.3837C2.66226 64.2099 3.38113 64.8306 4.20734 64.77C5.03355 64.7095 5.65423 63.9906 5.59367 63.1644L2.60169 63.3837ZM7.79376 87.1012C7.70179 86.2779 6.95981 85.685 6.1365 85.777C5.3132 85.869 4.72033 86.6109 4.8123 87.4342L7.79376 87.1012ZM8.10003 111.856C8.23028 112.674 8.99909 113.232 9.81721 113.102C10.6353 112.971 11.193 112.202 11.0627 111.384L8.10003 111.856ZM15.4451 134.85C15.2698 134.04 14.4713 133.526 13.6616 133.702C12.852 133.877 12.3377 134.675 12.513 135.485L15.4451 134.85ZM18.4747 159.161C18.7058 159.957 19.538 160.415 20.3335 160.184C21.1291 159.953 21.5868 159.12 21.3557 158.325L18.4747 159.161ZM29.1125 181.377C28.813 180.605 27.9441 180.221 27.1717 180.521C26.3993 180.82 26.016 181.689 26.3155 182.462L29.1125 181.377ZM36.3312 204.75C36.7129 205.485 37.6183 205.772 38.3536 205.39C39.0889 205.009 39.3755 204.103 38.9939 203.368L36.3312 204.75ZM51.4217 223.924C50.9449 223.246 50.0092 223.084 49.3317 223.56C48.6542 224.037 48.4916 224.973 48.9684 225.65L51.4217 223.924ZM64.5495 244.487C65.1277 245.081 66.0774 245.093 66.6707 244.515C67.264 243.937 67.2763 242.987 66.6982 242.394L64.5495 244.487ZM84.8182 258.039C84.1465 257.554 83.2089 257.706 82.7241 258.377C82.2392 259.049 82.3906 259.987 83.0623 260.471L84.8182 258.039ZM104.058 273.058C104.801 273.424 105.7 273.118 106.066 272.375C106.432 271.632 106.126 270.733 105.383 270.367L104.058 273.058ZM127.704 279.359C126.916 279.104 126.07 279.535 125.814 280.323C125.559 281.111 125.99 281.957 126.778 282.213L127.704 279.359ZM150.434 288.387C151.246 288.554 152.039 288.031 152.206 287.22C152.372 286.408 151.85 285.615 151.038 285.449L150.434 288.387ZM174.913 289.324C174.091 289.221 173.341 289.804 173.238 290.626C173.135 291.448 173.718 292.198 174.54 292.301L174.913 289.324ZM198.817 294.686C199.643 294.749 200.364 294.13 200.427 293.304C200.49 292.478 199.871 291.758 199.045 291.695L198.817 294.686ZM223.284 293.218C222.457 293.174 221.75 293.808 221.706 294.636C221.661 295.463 222.296 296.17 223.123 296.214L223.284 293.218ZM247.399 297.507C248.226 297.554 248.934 296.921 248.981 296.094C249.028 295.267 248.396 294.559 247.569 294.512L247.399 297.507ZM271.883 296.188C271.057 296.117 270.331 296.729 270.26 297.555C270.19 298.38 270.801 299.106 271.627 299.177L271.883 296.188ZM295.713 301.876C296.533 301.994 297.293 301.425 297.411 300.605C297.529 299.785 296.96 299.025 296.14 298.907L295.713 301.876ZM320.153 303.417C319.348 303.225 318.538 303.722 318.346 304.528C318.154 305.333 318.651 306.143 319.457 306.335L320.153 303.417ZM342.482 313.355C343.257 313.65 344.123 313.262 344.418 312.488C344.713 311.714 344.325 310.847 343.551 310.552L342.482 313.355ZM365.674 321.098C364.96 320.679 364.04 320.918 363.621 321.633C363.202 322.347 363.441 323.266 364.155 323.686L365.674 321.098ZM383.564 337.664C384.188 338.21 385.135 338.147 385.681 337.523C386.227 336.9 386.164 335.952 385.54 335.407L383.564 337.664ZM402.377 353.18C401.864 352.529 400.921 352.418 400.27 352.931C399.62 353.444 399.508 354.387 400.021 355.037L402.377 353.18ZM413.279 375.03C413.682 375.754 414.596 376.014 415.319 375.61C416.043 375.207 416.302 374.293 415.899 373.57L413.279 375.03ZM426.339 395.625C426.031 394.855 425.158 394.482 424.389 394.789C423.62 395.097 423.246 395.97 423.554 396.739L426.339 395.625ZM431.323 419.52C431.552 420.316 432.384 420.775 433.18 420.545C433.976 420.316 434.435 419.484 434.205 418.688L431.323 419.52ZM440.029 442.496C439.863 441.684 439.07 441.161 438.258 441.327C437.447 441.494 436.924 442.286 437.09 443.098L440.029 442.496ZM441.225 467.233C441.34 468.054 442.099 468.625 442.919 468.51C443.74 468.395 444.311 467.636 444.196 466.816L441.225 467.233ZM446.92 490.543C446.845 489.718 446.116 489.11 445.291 489.185C444.466 489.26 443.858 489.99 443.933 490.815L446.92 490.543ZM445.63 515.221C445.671 516.048 446.375 516.686 447.202 516.645C448.03 516.604 448.667 515.9 448.626 515.072L445.63 515.221ZM449.402 539.258C449.389 538.43 448.707 537.769 447.879 537.782C447.05 537.795 446.389 538.477 446.402 539.305L449.402 539.258ZM0.499756 2C0.499755 6.30788 0.527076 10.5515 0.581296 14.7319L3.58104 14.693C3.527 10.5259 3.49976 6.2952 3.49976 2L0.499756 2ZM1.22606 39.0633C1.56749 47.4454 2.02739 55.549 2.60169 63.3837L5.59367 63.1644C5.02185 55.3636 4.56375 47.2924 4.22357 38.9412L1.22606 39.0633ZM4.8123 87.4342C5.76042 95.9219 6.85847 104.057 8.10003 111.856L11.0627 111.384C9.8289 103.634 8.737 95.5451 7.79376 87.1012L4.8123 87.4342ZM12.513 135.485C14.3157 143.81 16.3063 151.694 18.4747 159.161L21.3557 158.325C19.2078 150.928 17.234 143.111 15.4451 134.85L12.513 135.485ZM26.3155 182.462C29.4139 190.452 32.7586 197.867 36.3312 204.75L38.9939 203.368C35.4745 196.588 32.1741 189.272 29.1125 181.377L26.3155 182.462ZM48.9684 225.65C53.8708 232.616 59.0757 238.87 64.5495 244.487L66.6982 242.394C61.3382 236.893 56.2348 230.763 51.4217 223.924L48.9684 225.65ZM83.0623 260.471C89.7924 265.33 96.8076 269.488 104.058 273.058L105.383 270.367C98.2739 266.866 91.404 262.793 84.8182 258.039L83.0623 260.471ZM126.778 282.213C134.495 284.715 142.397 286.736 150.434 288.387L151.038 285.449C143.093 283.816 135.3 281.823 127.704 279.359L126.778 282.213ZM174.54 292.301C182.563 293.305 190.671 294.066 198.817 294.686L199.045 291.695C190.932 291.077 182.875 290.321 174.913 289.324L174.54 292.301ZM223.123 296.214C231.239 296.651 239.332 297.049 247.399 297.507L247.569 294.512C239.5 294.053 231.377 293.655 223.284 293.218L223.123 296.214ZM271.627 299.177C279.766 299.874 287.809 300.738 295.713 301.876L296.14 298.907C288.166 297.759 280.064 296.889 271.883 296.188L271.627 299.177ZM319.457 306.335C327.355 308.221 335.047 310.521 342.482 313.355L343.551 310.552C335.977 307.665 328.16 305.329 320.153 303.417L319.457 306.335ZM364.155 323.686C370.937 327.667 377.423 332.288 383.564 337.664L385.54 335.407C379.251 329.901 372.611 325.171 365.674 321.098L364.155 323.686ZM400.021 355.037C404.74 361.021 409.17 367.66 413.279 375.03L415.899 373.57C411.717 366.066 407.199 359.294 402.377 353.18L400.021 355.037ZM423.554 396.739C426.378 403.797 428.974 411.377 431.323 419.52L434.205 418.688C431.831 410.456 429.203 402.781 426.339 395.625L423.554 396.739ZM437.09 443.098C438.653 450.724 440.035 458.761 441.225 467.233L444.196 466.816C442.998 458.286 441.605 450.187 440.029 442.496L437.09 443.098ZM443.933 490.815C444.643 498.623 445.211 506.753 445.63 515.221L448.626 515.072C448.205 506.566 447.635 498.394 446.92 490.543L443.933 490.815Z" fill="#FF5D04"/>
<path d="M166.734 267.851L165.146 260.253C165.011 259.61 164.692 259.008 164.23 258.525C163.768 258.043 163.185 257.702 162.556 257.547L155.745 255.841L156.013 254.262C156.083 253.843 155.985 253.4 155.74 253.03C155.495 252.66 155.122 252.393 154.704 252.289L124.768 244.789C123.932 244.58 123.075 244.712 122.383 245.156C121.692 245.6 121.224 246.32 121.082 247.158L117.339 269.26C117.197 270.098 117.393 270.984 117.884 271.724C118.374 272.464 119.12 272.998 119.955 273.207L123.304 274.046C123.421 275.491 124.005 276.893 124.965 278.029C125.925 279.166 127.205 279.973 128.605 280.324C130.004 280.675 131.443 280.548 132.694 279.966C133.945 279.383 134.937 278.376 135.514 277.105L145.362 279.572C145.479 281.017 146.063 282.418 147.023 283.555C147.983 284.692 149.263 285.499 150.663 285.85C152.062 286.2 153.501 286.074 154.752 285.491C156.003 284.908 156.995 283.902 157.572 282.631L160.921 283.469C161.756 283.679 162.614 283.547 163.305 283.103C163.997 282.659 164.465 281.939 164.607 281.101L166.746 268.471C166.78 268.268 166.776 268.058 166.734 267.851ZM129.142 277.154C128.518 276.998 127.94 276.66 127.481 276.183C127.021 275.707 126.701 275.112 126.56 274.476C126.42 273.839 126.465 273.188 126.69 272.606C126.915 272.024 127.311 271.537 127.826 271.206C128.342 270.874 128.954 270.714 129.586 270.746C130.218 270.777 130.841 270.998 131.376 271.381C131.912 271.765 132.335 272.293 132.593 272.899C132.852 273.505 132.933 274.161 132.827 274.786C132.686 275.623 132.218 276.343 131.526 276.787C130.835 277.232 129.977 277.363 129.142 277.154ZM122.094 260.577L124.233 247.947L152.594 255.051L150.455 267.682L122.094 260.577ZM151.2 282.68C150.576 282.524 149.999 282.186 149.539 281.709C149.08 281.232 148.759 280.638 148.619 280.001C148.478 279.365 148.523 278.714 148.748 278.132C148.973 277.55 149.369 277.063 149.884 276.731C150.4 276.4 151.012 276.24 151.644 276.271C152.276 276.303 152.899 276.524 153.434 276.907C153.97 277.29 154.393 277.818 154.652 278.424C154.91 279.03 154.991 279.687 154.886 280.312C154.744 281.149 154.276 281.869 153.585 282.313C152.893 282.757 152.035 282.889 151.2 282.68ZM154.408 263.735L155.21 258.998L162.021 260.704L163.109 265.914L154.408 263.735Z" fill="#FDCAAE"/>
</svg>
