<svg width="275" height="83" viewBox="0 0 275 83" fill="none" xmlns="http://www.w3.org/2000/svg">
<path d="M22.0369 3.08885C20.1258 3.35552 18.1554 4.57034 17.0443 6.17774C16.6147 6.79996 3.47396 33.0444 3.30359 33.6296C3.06655 34.4296 3.19248 35.5407 3.6147 36.3259C3.89618 36.8592 4.68878 37.6222 5.20729 37.874C6.06655 38.2889 6.14804 38.2963 12.0888 38.2963H17.5554L17.5703 32.2L17.5925 26.1111L17.7703 25.7777C18.0073 25.3259 18.4073 24.9185 18.8517 24.6814L19.2221 24.4814H21.5554C23.874 24.4814 23.8888 24.4814 24.2517 24.6592C24.6962 24.874 25.1184 25.2889 25.348 25.7185L25.5184 26.037L25.5406 32.1629L25.5554 38.2963H28.5406C31.8517 38.2963 32.1851 38.2592 32.9851 37.837C33.2369 37.7037 33.6369 37.4 33.8666 37.1703C34.2814 36.7555 34.4888 36.3481 41.4814 22.3703C45.6443 14.0444 48.7184 7.81478 48.7777 7.57034C49.2592 5.71848 48.074 3.71848 46.1554 3.15552C45.7925 3.05182 44.5629 3.037 34.0073 3.04441C27.548 3.05182 22.1629 3.07404 22.0369 3.08885Z" fill="#FC5C04"/>
<path d="M58.6666 7.66674C57.9406 7.8297 57.3258 8.17045 56.8147 8.68156C56.3629 9.126 56.3036 9.25193 48.6073 24.6371L40.8517 40.1482L48.6073 55.6667C56.1406 70.7186 56.3777 71.1927 56.7925 71.6075C58.2666 73.0964 60.6073 73.1038 62.074 71.6297L62.5555 71.1408L69.6517 56.926C77.7258 40.7482 77.1332 42.0816 77.1332 40.1482C77.1332 38.2149 77.7184 39.5408 69.6814 23.4445C65.1555 14.3927 62.5036 9.16304 62.311 8.91859C61.511 7.91119 59.9629 7.37785 58.6666 7.66674Z" fill="white"/>
<path d="M5.93334 42.1185C4.71112 42.4444 3.73334 43.3629 3.31853 44.5852C3.0889 45.2518 3.0963 46.2148 3.32593 46.8741C3.54075 47.4889 16.4815 73.3704 16.8889 74C17.3111 74.6444 18.3556 75.6741 19.0296 76.1111C19.6889 76.5333 20.5482 76.9111 21.3704 77.1333L21.963 77.2963L33.7037 77.3185C42.2445 77.3333 45.563 77.3185 45.8889 77.2592C47.2445 77 48.3852 75.9407 48.7778 74.563C48.9408 74.0074 48.9408 73.1778 48.7778 72.6296C48.7111 72.3926 45.4296 65.7481 41.4815 57.8592L34.3111 43.5111L33.8222 43.0592C33.2963 42.563 32.6445 42.2148 32.0148 42.0815C31.763 42.0296 30.5185 42 28.5926 42H25.5556L25.5408 48.0518C25.5185 54.0667 25.5185 54.1111 25.363 54.4518C25.1333 54.9481 24.7185 55.3704 24.237 55.6074L23.8148 55.8148H21.5556H19.2963L18.9185 55.6148C18.3482 55.3185 18.1037 55.0741 17.8593 54.5778L17.6296 54.1259V48.0592V42L11.9852 42.0074C7.29631 42.0074 6.26667 42.0296 5.93334 42.1185Z" fill="white"/>
<path d="M117.698 44L107.786 30.98V44H100.604V14.516H107.786V27.452L117.614 14.516H126.056L114.632 28.964L126.476 44H117.698ZM137.071 20.27V26.234H146.689V31.778H137.071V38.246H147.949V44H129.889V14.516H147.949V20.27H137.071ZM159.794 20.27V26.234H169.412V31.778H159.794V38.246H170.672V44H152.612V14.516H170.672V20.27H159.794ZM197.804 24.008C197.804 25.716 197.412 27.284 196.628 28.712C195.844 30.112 194.64 31.246 193.016 32.114C191.392 32.982 189.376 33.416 186.968 33.416H182.516V44H175.334V14.516H186.968C189.32 14.516 191.308 14.922 192.932 15.734C194.556 16.546 195.774 17.666 196.586 19.094C197.398 20.522 197.804 22.16 197.804 24.008ZM186.422 27.704C187.794 27.704 188.816 27.382 189.488 26.738C190.16 26.094 190.496 25.184 190.496 24.008C190.496 22.832 190.16 21.922 189.488 21.278C188.816 20.634 187.794 20.312 186.422 20.312H182.516V27.704H186.422ZM208.725 20.27V26.234H218.343V31.778H208.725V38.246H219.603V44H201.543V14.516H219.603V20.27H208.725ZM239.302 44L233.17 32.87H231.448V44H224.266V14.516H236.32C238.644 14.516 240.618 14.922 242.242 15.734C243.894 16.546 245.126 17.666 245.938 19.094C246.75 20.494 247.156 22.062 247.156 23.798C247.156 25.758 246.596 27.508 245.476 29.048C244.384 30.588 242.76 31.68 240.604 32.324L247.408 44H239.302ZM231.448 27.788H235.9C237.216 27.788 238.196 27.466 238.84 26.822C239.512 26.178 239.848 25.268 239.848 24.092C239.848 22.972 239.512 22.09 238.84 21.446C238.196 20.802 237.216 20.48 235.9 20.48H231.448V27.788ZM262.333 44.294C260.177 44.294 258.245 43.944 256.537 43.244C254.829 42.544 253.457 41.508 252.421 40.136C251.413 38.764 250.881 37.112 250.825 35.18H258.469C258.581 36.272 258.959 37.112 259.603 37.7C260.247 38.26 261.087 38.54 262.123 38.54C263.187 38.54 264.027 38.302 264.643 37.826C265.259 37.322 265.567 36.636 265.567 35.768C265.567 35.04 265.315 34.438 264.811 33.962C264.335 33.486 263.733 33.094 263.005 32.786C262.305 32.478 261.297 32.128 259.981 31.736C258.077 31.148 256.523 30.56 255.319 29.972C254.115 29.384 253.079 28.516 252.211 27.368C251.343 26.22 250.909 24.722 250.909 22.874C250.909 20.13 251.903 17.988 253.891 16.448C255.879 14.88 258.469 14.096 261.661 14.096C264.909 14.096 267.527 14.88 269.515 16.448C271.503 17.988 272.567 20.144 272.707 22.916H264.937C264.881 21.964 264.531 21.222 263.887 20.69C263.243 20.13 262.417 19.85 261.409 19.85C260.541 19.85 259.841 20.088 259.309 20.564C258.777 21.012 258.511 21.67 258.511 22.538C258.511 23.49 258.959 24.232 259.855 24.764C260.751 25.296 262.151 25.87 264.055 26.486C265.959 27.13 267.499 27.746 268.675 28.334C269.879 28.922 270.915 29.776 271.783 30.896C272.651 32.016 273.085 33.458 273.085 35.222C273.085 36.902 272.651 38.428 271.783 39.8C270.943 41.172 269.711 42.264 268.087 43.076C266.463 43.888 264.545 44.294 262.333 44.294Z" fill="white"/>
<path d="M102.598 72.558H107.658V75H99.518V59.644H102.598V72.558ZM115.028 75.198C113.854 75.198 112.798 74.9413 111.86 74.428C110.921 73.9 110.18 73.1593 109.638 72.206C109.11 71.2527 108.846 70.1527 108.846 68.906C108.846 67.6593 109.117 66.5593 109.66 65.606C110.217 64.6527 110.972 63.9193 111.926 63.406C112.879 62.878 113.942 62.614 115.116 62.614C116.289 62.614 117.352 62.878 118.306 63.406C119.259 63.9193 120.007 64.6527 120.55 65.606C121.107 66.5593 121.386 67.6593 121.386 68.906C121.386 70.1527 121.1 71.2527 120.528 72.206C119.97 73.1593 119.208 73.9 118.24 74.428C117.286 74.9413 116.216 75.198 115.028 75.198ZM115.028 72.514C115.585 72.514 116.106 72.382 116.59 72.118C117.088 71.8393 117.484 71.4287 117.778 70.886C118.071 70.3433 118.218 69.6833 118.218 68.906C118.218 67.7473 117.91 66.86 117.294 66.244C116.692 65.6133 115.952 65.298 115.072 65.298C114.192 65.298 113.451 65.6133 112.85 66.244C112.263 66.86 111.97 67.7473 111.97 68.906C111.97 70.0647 112.256 70.9593 112.828 71.59C113.414 72.206 114.148 72.514 115.028 72.514ZM128.419 62.614C129.328 62.614 130.128 62.7973 130.817 63.164C131.506 63.516 132.049 63.978 132.445 64.55V62.812H135.547V75.088C135.547 76.2173 135.32 77.222 134.865 78.102C134.41 78.9967 133.728 79.7007 132.819 80.214C131.91 80.742 130.81 81.006 129.519 81.006C127.788 81.006 126.366 80.6027 125.251 79.796C124.151 78.9893 123.528 77.8893 123.381 76.496H126.439C126.6 77.0533 126.945 77.4933 127.473 77.816C128.016 78.1533 128.668 78.322 129.431 78.322C130.326 78.322 131.052 78.0507 131.609 77.508C132.166 76.98 132.445 76.1733 132.445 75.088V73.196C132.049 73.768 131.499 74.2447 130.795 74.626C130.106 75.0073 129.314 75.198 128.419 75.198C127.392 75.198 126.454 74.934 125.603 74.406C124.752 73.878 124.078 73.1373 123.579 72.184C123.095 71.216 122.853 70.1087 122.853 68.862C122.853 67.63 123.095 66.5373 123.579 65.584C124.078 64.6307 124.745 63.8973 125.581 63.384C126.432 62.8707 127.378 62.614 128.419 62.614ZM132.445 68.906C132.445 68.158 132.298 67.52 132.005 66.992C131.712 66.4493 131.316 66.0387 130.817 65.76C130.318 65.4667 129.783 65.32 129.211 65.32C128.639 65.32 128.111 65.4593 127.627 65.738C127.143 66.0167 126.747 66.4273 126.439 66.97C126.146 67.498 125.999 68.1287 125.999 68.862C125.999 69.5953 126.146 70.2407 126.439 70.798C126.747 71.3407 127.143 71.7587 127.627 72.052C128.126 72.3453 128.654 72.492 129.211 72.492C129.783 72.492 130.318 72.3527 130.817 72.074C131.316 71.7807 131.712 71.37 132.005 70.842C132.298 70.2993 132.445 69.654 132.445 68.906ZM141.767 62.812V75H138.687V62.812H141.767ZM142.625 59.644L137.565 61.954V59.754L142.625 57.136V59.644ZM149.6 75.198C148.603 75.198 147.708 75.022 146.916 74.67C146.124 74.3033 145.493 73.812 145.024 73.196C144.569 72.58 144.32 71.898 144.276 71.15H147.378C147.437 71.6193 147.664 72.008 148.06 72.316C148.471 72.624 148.977 72.778 149.578 72.778C150.165 72.778 150.619 72.6607 150.942 72.426C151.279 72.1913 151.448 71.8907 151.448 71.524C151.448 71.128 151.243 70.8347 150.832 70.644C150.436 70.4387 149.798 70.2187 148.918 69.984C148.009 69.764 147.261 69.5367 146.674 69.302C146.102 69.0673 145.603 68.708 145.178 68.224C144.767 67.74 144.562 67.0873 144.562 66.266C144.562 65.5913 144.753 64.9753 145.134 64.418C145.53 63.8607 146.087 63.4207 146.806 63.098C147.539 62.7753 148.397 62.614 149.38 62.614C150.832 62.614 151.991 62.9807 152.856 63.714C153.721 64.4327 154.198 65.408 154.286 66.64H151.338C151.294 66.156 151.089 65.7747 150.722 65.496C150.37 65.2027 149.893 65.056 149.292 65.056C148.735 65.056 148.302 65.1587 147.994 65.364C147.701 65.5693 147.554 65.8553 147.554 66.222C147.554 66.6327 147.759 66.948 148.17 67.168C148.581 67.3733 149.219 67.586 150.084 67.806C150.964 68.026 151.69 68.2533 152.262 68.488C152.834 68.7227 153.325 69.0893 153.736 69.588C154.161 70.072 154.381 70.7173 154.396 71.524C154.396 72.228 154.198 72.8587 153.802 73.416C153.421 73.9733 152.863 74.4133 152.13 74.736C151.411 75.044 150.568 75.198 149.6 75.198ZM160.51 65.342V71.238C160.51 71.6487 160.606 71.9493 160.796 72.14C161.002 72.316 161.339 72.404 161.808 72.404H163.238V75H161.302C158.706 75 157.408 73.7387 157.408 71.216V65.342H155.956V62.812H157.408V59.798H160.51V62.812H163.238V65.342H160.51ZM167.016 61.36C166.473 61.36 166.018 61.1913 165.652 60.854C165.3 60.502 165.124 60.0693 165.124 59.556C165.124 59.0427 165.3 58.6173 165.652 58.28C166.018 57.928 166.473 57.752 167.016 57.752C167.558 57.752 168.006 57.928 168.358 58.28C168.724 58.6173 168.908 59.0427 168.908 59.556C168.908 60.0693 168.724 60.502 168.358 60.854C168.006 61.1913 167.558 61.36 167.016 61.36ZM168.534 62.812V75H165.454V62.812H168.534ZM170.785 68.906C170.785 67.6447 171.041 66.5447 171.555 65.606C172.068 64.6527 172.779 63.9193 173.689 63.406C174.598 62.878 175.639 62.614 176.813 62.614C178.323 62.614 179.57 62.9953 180.553 63.758C181.55 64.506 182.217 65.562 182.555 66.926H179.233C179.057 66.398 178.756 65.9873 178.331 65.694C177.92 65.386 177.407 65.232 176.791 65.232C175.911 65.232 175.214 65.5547 174.701 66.2C174.187 66.8307 173.931 67.7327 173.931 68.906C173.931 70.0647 174.187 70.9667 174.701 71.612C175.214 72.2427 175.911 72.558 176.791 72.558C178.037 72.558 178.851 72.0007 179.233 70.886H182.555C182.217 72.206 181.55 73.2547 180.553 74.032C179.555 74.8093 178.309 75.198 176.813 75.198C175.639 75.198 174.598 74.9413 173.689 74.428C172.779 73.9 172.068 73.1667 171.555 72.228C171.041 71.2747 170.785 70.1673 170.785 68.906ZM184.019 68.862C184.019 67.63 184.261 66.5373 184.745 65.584C185.244 64.6307 185.911 63.8973 186.747 63.384C187.598 62.8707 188.544 62.614 189.585 62.614C190.494 62.614 191.286 62.7973 191.961 63.164C192.65 63.5307 193.2 63.9927 193.611 64.55V62.812H196.713V75H193.611V73.218C193.215 73.79 192.665 74.2667 191.961 74.648C191.272 75.0147 190.472 75.198 189.563 75.198C188.536 75.198 187.598 74.934 186.747 74.406C185.911 73.878 185.244 73.1373 184.745 72.184C184.261 71.216 184.019 70.1087 184.019 68.862ZM193.611 68.906C193.611 68.158 193.464 67.52 193.171 66.992C192.878 66.4493 192.482 66.0387 191.983 65.76C191.484 65.4667 190.949 65.32 190.377 65.32C189.805 65.32 189.277 65.4593 188.793 65.738C188.309 66.0167 187.913 66.4273 187.605 66.97C187.312 67.498 187.165 68.1287 187.165 68.862C187.165 69.5953 187.312 70.2407 187.605 70.798C187.913 71.3407 188.309 71.7587 188.793 72.052C189.292 72.3453 189.82 72.492 190.377 72.492C190.949 72.492 191.484 72.3527 191.983 72.074C192.482 71.7807 192.878 71.37 193.171 70.842C193.464 70.2993 193.611 69.654 193.611 68.906Z" fill="#FF5D04"/>
</svg>
