<svg width="83" height="24" viewBox="0 0 83 24" fill="none" xmlns="http://www.w3.org/2000/svg">
<path d="M6.53293 0.915624C5.96639 0.994676 5.38227 1.35481 5.05289 1.83132C4.92552 2.01577 1.02998 9.79588 0.979474 9.96936C0.909205 10.2065 0.946536 10.5359 1.0717 10.7687C1.15515 10.9268 1.39011 11.153 1.54382 11.2276C1.79855 11.3506 1.8227 11.3528 3.58382 11.3528H5.20441L5.2088 9.54555L5.21538 7.74051L5.26809 7.6417C5.33836 7.50775 5.45693 7.38697 5.58869 7.3167L5.69848 7.25741H6.3902C7.07752 7.25741 7.08191 7.25741 7.18951 7.31011C7.32126 7.37379 7.44643 7.49677 7.5145 7.62413L7.56501 7.71855L7.5716 9.53457L7.57599 11.3528H8.46094C9.44251 11.3528 9.54133 11.3418 9.77849 11.2166C9.85315 11.1771 9.97173 11.0871 10.0398 11.019C10.1628 10.896 10.2243 10.7753 12.2972 6.63158C13.5313 4.16337 14.4426 2.31661 14.4602 2.24415C14.6029 1.69517 14.2516 1.10228 13.6828 0.935387C13.5752 0.904644 13.2107 0.900252 10.0815 0.902448C8.16669 0.904644 6.57026 0.911232 6.53293 0.915624Z" fill="white"/>
<path d="M17.3918 2.27276C17.1766 2.32107 16.9943 2.42209 16.8428 2.5736C16.7088 2.70536 16.6913 2.74269 14.4097 7.30359L12.1106 11.9018L14.4097 16.5023C16.643 20.9643 16.7132 21.1049 16.8362 21.2279C17.2732 21.6692 17.9671 21.6714 18.4019 21.2344L18.5446 21.0895L20.6483 16.8756C23.0418 12.0797 22.8662 12.475 22.8662 11.9018C22.8662 11.3287 23.0396 11.7218 20.6571 6.95005C19.3154 4.26665 18.5292 2.71634 18.4721 2.64387C18.235 2.34523 17.776 2.18712 17.3918 2.27276Z" fill="white"/>
<path d="M1.75896 12.4859C1.39664 12.5826 1.10678 12.8549 0.983808 13.2172C0.915735 13.4148 0.917931 13.7003 0.986004 13.8957C1.04969 14.078 4.88594 21.7505 5.00672 21.9371C5.13188 22.1282 5.44151 22.4334 5.64133 22.563C5.83677 22.6881 6.09149 22.8001 6.33524 22.866L6.51091 22.9143L9.99143 22.9209C12.5233 22.9253 13.5071 22.9209 13.6037 22.9033C14.0056 22.8265 14.3437 22.5125 14.4601 22.104C14.5084 21.9393 14.5084 21.6934 14.4601 21.5309C14.4403 21.4606 13.4676 19.4909 12.2971 17.1522L10.1715 12.8988L10.0266 12.7648C9.87065 12.6177 9.67742 12.5145 9.49076 12.475C9.4161 12.4596 9.04719 12.4508 8.47625 12.4508H7.57593L7.57154 14.2449C7.56495 16.0279 7.56495 16.0411 7.51884 16.1421C7.45076 16.2893 7.32779 16.4144 7.18506 16.4847L7.05989 16.5462H6.39014H5.72039L5.60839 16.4869C5.43931 16.399 5.36684 16.3266 5.29438 16.1795L5.22631 16.0455V14.2471V12.4508L3.55302 12.453C2.16301 12.453 1.85778 12.4596 1.75896 12.4859Z" fill="white"/>
<path d="M34.8914 16.5575L31.953 12.6977V16.5575H29.824V7.81703H31.953V11.6519L34.8665 7.81703H37.3691L33.9825 12.1001L37.4936 16.5575H34.8914ZM40.6346 9.52279V11.2908H43.4858V12.9343H40.6346V14.8517H43.8593V16.5575H38.5055V7.81703H43.8593V9.52279H40.6346ZM47.3706 9.52279V11.2908H50.2219V12.9343H47.3706V14.8517H50.5954V16.5575H45.2416V7.81703H50.5954V9.52279H47.3706ZM58.6388 10.6309C58.6388 11.1372 58.5226 11.6021 58.2902 12.0254C58.0578 12.4404 57.7009 12.7766 57.2194 13.0339C56.738 13.2912 56.1404 13.4199 55.4265 13.4199H54.1067V16.5575H51.9776V7.81703H55.4265C56.1238 7.81703 56.7131 7.93739 57.1945 8.1781C57.676 8.41882 58.037 8.75084 58.2777 9.17417C58.5185 9.59749 58.6388 10.0831 58.6388 10.6309ZM55.2646 11.7266C55.6714 11.7266 55.9743 11.6311 56.1736 11.4402C56.3728 11.2493 56.4724 10.9795 56.4724 10.6309C56.4724 10.2823 56.3728 10.0125 56.1736 9.82161C55.9743 9.6307 55.6714 9.53524 55.2646 9.53524H54.1067V11.7266H55.2646ZM61.8763 9.52279V11.2908H64.7276V12.9343H61.8763V14.8517H65.1011V16.5575H59.7472V7.81703H65.1011V9.52279H61.8763ZM70.9407 16.5575L69.1229 13.258H68.6124V16.5575H66.4833V7.81703H70.0567C70.7456 7.81703 71.3308 7.93739 71.8123 8.1781C72.302 8.41882 72.6672 8.75084 72.9079 9.17417C73.1486 9.58919 73.269 10.054 73.269 10.5687C73.269 11.1497 73.103 11.6685 72.771 12.125C72.4472 12.5815 71.9658 12.9053 71.3267 13.0962L73.3437 16.5575H70.9407ZM68.6124 11.7515H69.9322C70.3223 11.7515 70.6128 11.656 70.8037 11.4651C71.003 11.2742 71.1026 11.0044 71.1026 10.6558C71.1026 10.3238 71.003 10.0623 70.8037 9.87141C70.6128 9.6805 70.3223 9.58504 69.9322 9.58504H68.6124V11.7515ZM77.768 16.6447C77.1289 16.6447 76.5561 16.5409 76.0498 16.3334C75.5435 16.1259 75.1367 15.8187 74.8296 15.412C74.5308 15.0053 74.3731 14.5156 74.3565 13.9428H76.6225C76.6557 14.2665 76.7678 14.5156 76.9587 14.6899C77.1496 14.8559 77.3986 14.9389 77.7058 14.9389C78.0212 14.9389 78.2702 14.8683 78.4528 14.7272C78.6354 14.5778 78.7267 14.3745 78.7267 14.1171C78.7267 13.9013 78.652 13.7229 78.5026 13.5818C78.3615 13.4406 78.183 13.3244 77.9672 13.2331C77.7597 13.1418 77.4609 13.0381 77.0708 12.9219C76.5063 12.7475 76.0457 12.5732 75.6887 12.3989C75.3318 12.2246 75.0247 11.9673 74.7674 11.627C74.5101 11.2867 74.3814 10.8426 74.3814 10.2947C74.3814 9.48129 74.6761 8.8463 75.2654 8.38977C75.8547 7.92494 76.6225 7.69252 77.5688 7.69252C78.5317 7.69252 79.3078 7.92494 79.8971 8.38977C80.4864 8.8463 80.8019 9.48544 80.8434 10.3072H78.54C78.5234 10.025 78.4196 9.80501 78.2287 9.6473C78.0378 9.48129 77.7929 9.39828 77.4941 9.39828C77.2368 9.39828 77.0293 9.46884 76.8716 9.60994C76.7139 9.74275 76.635 9.93782 76.635 10.1951C76.635 10.4774 76.7678 10.6973 77.0334 10.855C77.299 11.0127 77.7141 11.1829 78.2785 11.3655C78.8429 11.5564 79.2995 11.739 79.6481 11.9133C80.005 12.0877 80.3121 12.3408 80.5695 12.6728C80.8268 13.0049 80.9554 13.4323 80.9554 13.9553C80.9554 14.4533 80.8268 14.9057 80.5695 15.3124C80.3204 15.7191 79.9552 16.0429 79.4738 16.2836C78.9923 16.5243 78.4238 16.6447 77.768 16.6447Z" fill="white"/>
</svg>
