<svg width="545" height="319" viewBox="0 0 545 319" fill="none" xmlns="http://www.w3.org/2000/svg">
<g clip-path="url(#clip0_2_83984)">
<path d="M118.086 282.343C133.74 282.343 146.43 269.454 146.43 253.554C146.43 237.654 133.74 224.764 118.086 224.764C102.433 224.764 89.7433 237.654 89.7433 253.554C89.7433 269.454 102.433 282.343 118.086 282.343Z" fill="#F2F2F2"/>
<path d="M122.695 278.13C138.348 278.13 151.038 265.24 151.038 249.34C151.038 233.44 138.348 220.551 122.695 220.551C107.042 220.551 94.3519 233.44 94.3519 249.34C94.3519 265.24 107.042 278.13 122.695 278.13Z" fill="#FF9C66"/>
<path d="M496.201 217.485H145.521V218.457H496.201V217.485Z" fill="#3F3D56"/>
<path d="M327.139 9.06385H202.669V6.45801H146.23V9.06385H21.2466C20.1409 9.06384 19.0461 9.28505 18.0246 9.71483C17.0031 10.1446 16.075 10.7746 15.2931 11.5687C14.5113 12.3628 13.8912 13.3056 13.468 14.3432C13.0449 15.3808 12.8271 16.4928 12.8271 17.6159V190.738C12.8271 193.006 13.7142 195.181 15.2931 196.785C16.8721 198.389 19.0136 199.29 21.2466 199.29H327.139C329.372 199.29 331.513 198.389 333.092 196.785C334.671 195.181 335.558 193.006 335.558 190.738V17.6159C335.558 16.4928 335.341 15.3808 334.917 14.3432C334.494 13.3056 333.874 12.3628 333.092 11.5687C332.311 10.7746 331.382 10.1446 330.361 9.71483C329.339 9.28505 328.245 9.06384 327.139 9.06385Z" fill="#3F3D56"/>
<path d="M324.27 24.1777H24.1151V196.163H324.27V24.1777Z" fill="#FF9C66"/>
<path d="M173.936 19.4874C175.636 19.4874 177.015 18.0874 177.015 16.3604C177.015 14.6334 175.636 13.2334 173.936 13.2334C172.236 13.2334 170.858 14.6334 170.858 16.3604C170.858 18.0874 172.236 19.4874 173.936 19.4874Z" fill="#FF5D04"/>
<path opacity="0.1" d="M238.431 196.163H24.1151V24.1782L238.431 196.163Z" fill="black"/>
<path d="M71.0804 183.294C87.0148 183.294 99.9322 170.173 99.9322 153.987C99.9322 137.802 87.0148 124.681 71.0804 124.681C55.1459 124.681 42.2285 137.802 42.2285 153.987C42.2285 170.173 55.1459 183.294 71.0804 183.294Z" fill="#F2F2F2"/>
<path d="M272.008 116.931H243.971V122.882H272.008V116.931Z" fill="#3F3D56"/>
<path d="M305.905 70.5991H210.074V73.1495H305.905V70.5991Z" fill="#3F3D56"/>
<path d="M305.905 78.6753H210.074V81.2257H305.905V78.6753Z" fill="#3F3D56"/>
<path d="M305.905 86.7515H210.074V89.3019H305.905V86.7515Z" fill="#3F3D56"/>
<path d="M305.905 94.8276H210.074V97.378H305.905V94.8276Z" fill="#3F3D56"/>
<path d="M305.905 102.904H210.074V105.454H305.905V102.904Z" fill="#3F3D56"/>
<path d="M305.905 27.667H294.188V39.5688H305.905V27.667Z" fill="#F2F2F2"/>
<path d="M311.345 45.0948H297.117V30.6426H311.345V45.0948ZM297.735 44.4665H310.726V31.271H297.735V44.4665Z" fill="#3F3D56"/>
<path d="M343.986 193.036H314.693V190.892C314.693 190.837 314.682 190.781 314.661 190.73C314.64 190.678 314.609 190.631 314.57 190.592C314.531 190.552 314.485 190.521 314.434 190.5C314.384 190.478 314.329 190.467 314.274 190.467H304.231C304.176 190.467 304.122 190.478 304.071 190.5C304.02 190.521 303.974 190.552 303.935 190.592C303.896 190.631 303.865 190.678 303.844 190.73C303.823 190.781 303.812 190.837 303.812 190.892V193.036H297.535V190.892C297.535 190.837 297.525 190.781 297.503 190.73C297.482 190.678 297.452 190.631 297.413 190.592C297.374 190.552 297.328 190.521 297.277 190.5C297.226 190.478 297.172 190.467 297.117 190.467H287.073C287.019 190.467 286.964 190.478 286.913 190.5C286.863 190.521 286.816 190.552 286.778 190.592C286.739 190.631 286.708 190.678 286.687 190.73C286.666 190.781 286.655 190.837 286.655 190.892V193.036H280.378V190.892C280.378 190.837 280.367 190.781 280.346 190.73C280.325 190.678 280.294 190.631 280.255 190.592C280.216 190.552 280.17 190.521 280.12 190.5C280.069 190.478 280.014 190.467 279.959 190.467H269.916C269.861 190.467 269.807 190.478 269.756 190.5C269.705 190.521 269.659 190.552 269.62 190.592C269.581 190.631 269.55 190.678 269.529 190.73C269.508 190.781 269.498 190.837 269.498 190.892V193.036H263.22V190.892C263.22 190.837 263.21 190.781 263.189 190.73C263.168 190.678 263.137 190.631 263.098 190.592C263.059 190.552 263.013 190.521 262.962 190.5C262.911 190.478 262.857 190.467 262.802 190.467H252.759C252.704 190.467 252.649 190.478 252.598 190.5C252.548 190.521 252.502 190.552 252.463 190.592C252.424 190.631 252.393 190.678 252.372 190.73C252.351 190.781 252.34 190.837 252.34 190.892V193.036H246.063V190.892C246.063 190.837 246.052 190.781 246.031 190.73C246.01 190.678 245.979 190.631 245.94 190.592C245.902 190.552 245.855 190.521 245.805 190.5C245.754 190.478 245.699 190.467 245.645 190.467H235.601C235.546 190.467 235.492 190.478 235.441 190.5C235.39 190.521 235.344 190.552 235.305 190.592C235.266 190.631 235.236 190.678 235.214 190.73C235.193 190.781 235.183 190.837 235.183 190.892V193.036H228.906V190.892C228.906 190.837 228.895 190.781 228.874 190.73C228.853 190.678 228.822 190.631 228.783 190.592C228.744 190.552 228.698 190.521 228.647 190.5C228.596 190.478 228.542 190.467 228.487 190.467H218.444C218.389 190.467 218.334 190.478 218.284 190.5C218.233 190.521 218.187 190.552 218.148 190.592C218.109 190.631 218.078 190.678 218.057 190.73C218.036 190.781 218.025 190.837 218.025 190.892V193.036H211.748V190.892C211.748 190.837 211.737 190.781 211.716 190.73C211.695 190.678 211.664 190.631 211.626 190.592C211.587 190.552 211.54 190.521 211.49 190.5C211.439 190.478 211.385 190.467 211.33 190.467H132.656C132.601 190.467 132.547 190.478 132.496 190.5C132.445 190.521 132.399 190.552 132.36 190.592C132.322 190.631 132.291 190.678 132.27 190.73C132.249 190.781 132.238 190.837 132.238 190.892V193.036H125.961V190.892C125.961 190.837 125.95 190.781 125.929 190.73C125.908 190.678 125.877 190.631 125.838 190.592C125.799 190.552 125.753 190.521 125.702 190.5C125.652 190.478 125.597 190.467 125.542 190.467H115.499C115.444 190.467 115.39 190.478 115.339 190.5C115.288 190.521 115.242 190.552 115.203 190.592C115.164 190.631 115.133 190.678 115.112 190.73C115.091 190.781 115.08 190.837 115.08 190.892V193.036H108.803V190.892C108.803 190.837 108.793 190.781 108.771 190.73C108.75 190.678 108.72 190.631 108.681 190.592C108.642 190.552 108.596 190.521 108.545 190.5C108.494 190.478 108.44 190.467 108.385 190.467H98.3415C98.2865 190.467 98.2321 190.478 98.1813 190.5C98.1306 190.521 98.0844 190.552 98.0456 190.592C98.0067 190.631 97.9759 190.678 97.9549 190.73C97.9338 190.781 97.923 190.837 97.923 190.892V193.036H91.6459V190.892C91.6459 190.837 91.6351 190.781 91.614 190.73C91.593 190.678 91.5622 190.631 91.5233 190.592C91.4845 190.552 91.4383 190.521 91.3876 190.5C91.3368 190.478 91.2824 190.467 91.2274 190.467H81.184C81.1291 190.467 81.0747 190.478 81.0239 190.5C80.9731 190.521 80.927 190.552 80.8881 190.592C80.8493 190.631 80.8184 190.678 80.7974 190.73C80.7764 190.781 80.7656 190.837 80.7656 190.892V193.036H74.4885V190.892C74.4885 190.837 74.4776 190.781 74.4566 190.73C74.4356 190.678 74.4048 190.631 74.3659 190.592C74.327 190.552 74.2809 190.521 74.2301 190.5C74.1794 190.478 74.125 190.467 74.07 190.467H64.0266C63.9716 190.467 63.9172 190.478 63.8664 190.5C63.8157 190.521 63.7695 190.552 63.7307 190.592C63.6918 190.631 63.661 190.678 63.64 190.73C63.6189 190.781 63.6081 190.837 63.6081 190.892V193.036H57.331V190.892C57.331 190.837 57.3202 190.781 57.2992 190.73C57.2781 190.678 57.2473 190.631 57.2084 190.592C57.1696 190.552 57.1234 190.521 57.0727 190.5C57.0219 190.478 56.9675 190.467 56.9125 190.467H46.8691C46.8142 190.467 46.7598 190.478 46.709 190.5C46.6582 190.521 46.6121 190.552 46.5732 190.592C46.5344 190.631 46.5035 190.678 46.4825 190.73C46.4615 190.781 46.4507 190.837 46.4507 190.892V193.036H40.1735V190.892C40.1735 190.837 40.1627 190.781 40.1417 190.73C40.1207 190.678 40.0898 190.631 40.051 190.592C40.0121 190.552 39.966 190.521 39.9152 190.5C39.8644 190.478 39.81 190.467 39.7551 190.467H29.7117C29.6567 190.467 29.6023 190.478 29.5515 190.5C29.5008 190.521 29.4546 190.552 29.4158 190.592C29.3769 190.631 29.3461 190.678 29.3251 190.73C29.304 190.781 29.2932 190.837 29.2932 190.892V193.036H10.0434C7.37972 193.036 4.82514 194.111 2.94164 196.024C1.05814 197.937 2.53768e-06 200.532 0 203.238V207.851C7.61305e-06 210.556 1.05815 213.151 2.94165 215.064C4.82515 216.977 7.37972 218.052 10.0434 218.052H343.986C346.65 218.052 349.204 216.977 351.088 215.064C352.971 213.151 354.029 210.556 354.029 207.851V203.238C354.029 200.532 352.971 197.937 351.088 196.024C349.204 194.111 346.65 193.036 343.986 193.036Z" fill="#3F3D56"/>
<path d="M78.0642 172.292C70.8729 172.292 63.8431 170.126 57.8638 166.067C51.8845 162.009 47.2241 156.241 44.4721 149.493C41.7202 142.744 41.0001 135.318 42.4031 128.154C43.806 120.99 47.2689 114.409 52.354 109.244C57.439 104.079 63.9177 100.561 70.9708 99.1364C78.0239 97.7114 85.3346 98.4428 91.9785 101.238C98.6224 104.033 104.301 108.767 108.296 114.841C112.292 120.914 114.424 128.055 114.424 135.359C114.413 145.151 110.579 154.538 103.762 161.462C96.946 168.386 87.7041 172.281 78.0642 172.292ZM78.0642 99.3987C71.0622 99.3987 64.2174 101.508 58.3954 105.459C52.5734 109.411 48.0357 115.027 45.3561 121.598C42.6766 128.169 41.9755 135.399 43.3415 142.375C44.7075 149.35 48.0793 155.758 53.0305 160.787C57.9817 165.816 64.2899 169.241 71.1574 170.629C78.0249 172.016 85.1433 171.304 91.6123 168.582C98.0814 165.861 103.611 161.252 107.501 155.338C111.391 149.424 113.467 142.472 113.467 135.359C113.457 125.825 109.723 116.685 103.086 109.943C96.4491 103.202 87.4504 99.4095 78.0642 99.3987Z" fill="#3F3D56"/>
<path d="M402.431 15.8145H280.435V16.7864H402.431V15.8145Z" fill="#3F3D56"/>
<path d="M545 272.398H194.32V273.37H545V272.398Z" fill="#3F3D56"/>
<path d="M214.174 317.105H92.1776V318.077H214.174V317.105Z" fill="#3F3D56"/>
<path d="M238.731 267.274H225.335V280.881H238.731V267.274Z" fill="#FF9C66"/>
<path d="M246.864 273.106H230.598V256.583H246.864V273.106ZM231.305 272.388H246.157V257.302H231.305V272.388Z" fill="#3F3D56"/>
<path d="M394.217 10.6909H380.821V24.2976H394.217V10.6909Z" fill="#FF5D04"/>
<path d="M402.35 16.5224H386.083V0H402.35V16.5224ZM386.791 15.8041H401.642V0.718367H386.791V15.8041Z" fill="#3F3D56"/>
<path d="M529.131 267.274H515.735V280.881H529.131V267.274Z" fill="#FF5D04"/>
<path d="M537.264 273.106H520.997V256.583H537.264V273.106ZM521.705 272.388H536.556V257.302H521.705V272.388Z" fill="#3F3D56"/>
<path d="M505.77 112.721H504.632V81.0552C504.632 78.6484 504.165 76.2652 503.258 74.0417C502.352 71.8181 501.023 69.7977 499.347 68.0959C497.672 66.3941 495.683 65.0441 493.494 64.1231C491.305 63.2021 488.958 62.728 486.589 62.728H420.542C418.172 62.728 415.826 63.2021 413.637 64.1231C411.448 65.0441 409.459 66.3941 407.783 68.0959C406.108 69.7977 404.779 71.8181 403.872 74.0417C402.965 76.2652 402.499 78.6484 402.499 81.0552V254.775C402.499 257.181 402.965 259.564 403.872 261.788C404.779 264.012 406.108 266.032 407.783 267.734C409.459 269.436 411.448 270.786 413.637 271.707C415.826 272.628 418.172 273.102 420.542 273.102H486.589C488.958 273.102 491.305 272.628 493.494 271.707C495.683 270.786 497.672 269.436 499.347 267.734C501.023 266.032 502.352 264.012 503.258 261.788C504.165 259.564 504.632 257.181 504.632 254.775V135.261H505.77V112.721Z" fill="#3F3D56"/>
<path d="M500.79 82.1327V255.599C500.79 259.229 499.371 262.71 496.845 265.277C494.318 267.845 490.891 269.287 487.317 269.288H420.951C417.378 269.287 413.951 267.845 411.424 265.277C408.897 262.71 407.478 259.229 407.479 255.599V82.1327C407.479 78.5035 408.899 75.023 411.425 72.4568C413.952 69.8905 417.378 68.4486 420.951 68.4482H429.003C428.607 69.4355 428.456 70.5066 428.563 71.5672C428.67 72.6278 429.033 73.6453 429.618 74.5301C430.204 75.4149 430.995 76.1398 431.921 76.6411C432.847 77.1423 433.881 77.4044 434.931 77.4044H472.769C473.818 77.4044 474.852 77.1423 475.778 76.6411C476.705 76.1399 477.496 75.4149 478.081 74.5301C478.667 73.6453 479.029 72.6278 479.136 71.5672C479.244 70.5066 479.093 69.4355 478.696 68.4482H487.317C490.89 68.4486 494.317 69.8905 496.843 72.4568C499.37 75.023 500.789 78.5035 500.79 82.1327Z" fill="#FF9C66"/>
<path d="M464.019 182.824H444.249V188.775H464.019V182.824Z" fill="#3F3D56"/>
<path d="M487.92 136.492H420.348V139.043H487.92V136.492Z" fill="#3F3D56"/>
<path d="M487.92 144.568H420.348V147.119H487.92V144.568Z" fill="#3F3D56"/>
<path d="M487.92 152.645H420.348V155.195H487.92V152.645Z" fill="#3F3D56"/>
<path d="M487.92 160.721H420.348V163.271H487.92V160.721Z" fill="#3F3D56"/>
<path d="M487.92 168.797H420.348V171.348H487.92V168.797Z" fill="#3F3D56"/>
<path d="M456.495 102.623H444.778V114.525H456.495V102.623Z" fill="#F2F2F2"/>
<path d="M449.263 105.599V120.051H463.491V105.599H449.263ZM462.874 119.425H449.88V106.226H462.874V119.425Z" fill="#3F3D56"/>
<path opacity="0.1" d="M500.79 237.074V255.598C500.79 259.228 499.371 262.71 496.845 265.277C494.318 267.845 490.891 269.287 487.317 269.288H420.951C417.378 269.287 413.951 267.845 411.424 265.277C408.897 262.71 407.478 259.228 407.479 255.598V162.193L463.392 207.061L464.349 207.829L474.749 216.173L475.721 216.955L500.79 237.074Z" fill="black"/>
<path d="M448.393 263.666C459.984 263.666 469.38 254.122 469.38 242.348C469.38 230.575 459.984 221.031 448.393 221.031C436.802 221.031 427.406 230.575 427.406 242.348C427.406 254.122 436.802 263.666 448.393 263.666Z" fill="#F2F2F2"/>
<path d="M153.176 318.077C144.944 318.077 136.896 315.598 130.052 310.952C123.207 306.307 117.872 299.704 114.722 291.979C111.571 284.253 110.747 275.753 112.353 267.551C113.959 259.35 117.923 251.817 123.744 245.904C129.565 239.992 136.982 235.965 145.056 234.334C153.13 232.703 161.498 233.54 169.104 236.74C176.709 239.94 183.21 245.359 187.783 252.311C192.357 259.264 194.798 267.438 194.798 275.799C194.786 287.008 190.396 297.755 182.593 305.68C174.79 313.606 164.211 318.065 153.176 318.077ZM153.176 234.493C145.133 234.493 137.271 236.916 130.583 241.455C123.896 245.993 118.684 252.445 115.606 259.992C112.528 267.54 111.722 275.845 113.292 283.858C114.861 291.87 118.734 299.23 124.421 305.007C130.108 310.784 137.354 314.718 145.242 316.312C153.131 317.906 161.307 317.088 168.738 313.961C176.168 310.835 182.52 305.541 186.988 298.748C191.456 291.955 193.841 283.969 193.841 275.799C193.829 264.848 189.541 254.349 181.917 246.605C174.294 238.862 163.957 234.506 153.176 234.493Z" fill="#3F3D56"/>
<path d="M454.579 258.791C449.375 258.791 444.288 257.224 439.96 254.287C435.633 251.35 432.261 247.176 430.269 242.292C428.278 237.408 427.756 232.034 428.772 226.85C429.787 221.665 432.293 216.903 435.973 213.165C439.653 209.427 444.341 206.881 449.446 205.85C454.55 204.819 459.841 205.348 464.649 207.371C469.457 209.394 473.566 212.82 476.458 217.215C479.349 221.61 480.892 226.778 480.892 232.064C480.884 239.15 478.109 245.944 473.177 250.954C468.244 255.965 461.555 258.783 454.579 258.791ZM454.579 206.308C449.564 206.308 444.662 207.819 440.492 210.649C436.322 213.479 433.072 217.501 431.153 222.208C429.234 226.914 428.732 232.092 429.71 237.089C430.689 242.085 433.103 246.674 436.65 250.276C440.196 253.878 444.714 256.331 449.632 257.325C454.551 258.318 459.649 257.808 464.282 255.859C468.916 253.91 472.876 250.608 475.662 246.373C478.448 242.137 479.935 237.158 479.935 232.064C479.928 225.235 477.254 218.689 472.5 213.86C467.747 209.032 461.302 206.316 454.579 206.308Z" fill="#3F3D56"/>
</g>
<defs>
<clipPath id="clip0_2_83984">
<rect width="545" height="318.078" fill="white"/>
</clipPath>
</defs>
</svg>
