<svg width="897" height="843" viewBox="0 0 897 843" fill="none" xmlns="http://www.w3.org/2000/svg">
<path d="M893.5 2C893.5 1.17157 894.172 0.5 895 0.5C895.828 0.5 896.5 1.17157 896.5 2L893.5 2ZM9 843L0.558289 827.876L17.877 828.127L9 843ZM896.352 14.2286C896.332 15.0568 895.644 15.7118 894.816 15.6916C893.988 15.6715 893.333 14.9837 893.353 14.1555L896.352 14.2286ZM892.191 37.7146C892.253 36.8885 892.973 36.2691 893.799 36.3312C894.625 36.3932 895.244 37.1132 895.182 37.9393L892.191 37.7146ZM892.782 61.4015C892.675 62.223 891.923 62.8021 891.101 62.695C890.28 62.5879 889.7 61.8351 889.808 61.0137L892.782 61.4015ZM886.072 84.3012C886.228 83.4876 887.014 82.9543 887.827 83.1101C888.641 83.2659 889.174 84.0519 889.018 84.8655L886.072 84.3012ZM883.842 107.943C883.634 108.745 882.816 109.228 882.014 109.02C881.212 108.813 880.73 107.995 880.937 107.193L883.842 107.943ZM874.309 129.715C874.57 128.929 875.419 128.503 876.205 128.763C876.991 129.024 877.417 129.873 877.156 130.659L874.309 129.715ZM868.893 152.929C868.577 153.695 867.7 154.061 866.934 153.745C866.168 153.429 865.803 152.553 866.119 151.787L868.893 152.929ZM856.447 173.057C856.817 172.316 857.718 172.015 858.459 172.385C859.2 172.755 859.501 173.656 859.131 174.397L856.447 173.057ZM847.719 195.307C847.296 196.019 846.376 196.253 845.664 195.83C844.952 195.407 844.717 194.486 845.141 193.774L847.719 195.307ZM832.446 213.475C832.92 212.796 833.855 212.628 834.534 213.102C835.214 213.575 835.382 214.51 834.908 215.19L832.446 213.475ZM820.664 234.181C820.144 234.826 819.199 234.927 818.554 234.408C817.909 233.888 817.808 232.943 818.328 232.298L820.664 234.181ZM802.981 250.083C803.542 249.474 804.491 249.435 805.1 249.997C805.709 250.559 805.748 251.508 805.186 252.117L802.981 250.083ZM788.551 269.049C787.952 269.622 787.003 269.601 786.43 269.002C785.857 268.404 785.878 267.454 786.477 266.881L788.551 269.049ZM769.042 282.617C769.672 282.08 770.619 282.155 771.156 282.786C771.694 283.416 771.618 284.363 770.988 284.9L769.042 282.617ZM752.528 299.803C751.87 300.307 750.929 300.182 750.425 299.524C749.922 298.866 750.047 297.925 750.705 297.421L752.528 299.803ZM731.676 311.272C732.357 310.8 733.291 310.97 733.763 311.65C734.235 312.331 734.066 313.266 733.385 313.738L731.676 311.272ZM713.641 326.794C712.941 327.237 712.015 327.028 711.572 326.328C711.13 325.627 711.339 324.701 712.039 324.258L713.641 326.794ZM691.824 336.49C692.541 336.075 693.459 336.319 693.875 337.035C694.29 337.752 694.046 338.67 693.33 339.085L691.824 336.49ZM672.711 350.582C671.981 350.974 671.071 350.7 670.68 349.97C670.288 349.24 670.563 348.33 671.293 347.939L672.711 350.582ZM650.274 358.811C651.015 358.441 651.916 358.742 652.286 359.483C652.656 360.224 652.355 361.125 651.614 361.495L650.274 358.811ZM630.368 371.758C629.617 372.109 628.724 371.785 628.373 371.035C628.022 370.285 628.346 369.392 629.096 369.041L630.368 371.758ZM607.576 378.814C608.334 378.48 609.219 378.823 609.553 379.581C609.888 380.339 609.545 381.224 608.787 381.559L607.576 378.814ZM587.072 390.891C586.308 391.211 585.429 390.851 585.109 390.087C584.788 389.323 585.148 388.444 585.912 388.124L587.072 390.891ZM564.056 397.074C564.825 396.766 565.698 397.139 566.006 397.908C566.314 398.677 565.94 399.55 565.171 399.858L564.056 397.074ZM543.154 408.506C542.381 408.804 541.512 408.419 541.214 407.646C540.916 406.873 541.301 406.005 542.074 405.707L543.154 408.506ZM519.997 414.083C520.773 413.793 521.638 414.186 521.928 414.962C522.218 415.738 521.824 416.603 521.048 416.893L519.997 414.083ZM498.856 425.082C498.077 425.366 497.216 424.966 496.932 424.187C496.648 423.409 497.049 422.548 497.827 422.264L498.856 425.082ZM475.614 430.296C476.394 430.016 477.253 430.421 477.532 431.201C477.812 431.981 477.407 432.84 476.627 433.12L475.614 430.296ZM454.366 441.064C453.585 441.341 452.727 440.933 452.45 440.153C452.172 439.372 452.58 438.514 453.361 438.237L454.366 441.064ZM431.079 446.144C431.86 445.867 432.717 446.275 432.994 447.056C433.271 447.837 432.863 448.694 432.082 448.971L431.079 446.144ZM409.838 456.878C409.058 457.157 408.2 456.75 407.922 455.97C407.643 455.189 408.05 454.331 408.83 454.053L409.838 456.878ZM386.55 462.048C387.329 461.767 388.189 462.17 388.471 462.949C388.752 463.728 388.349 464.588 387.57 464.87L386.55 462.048ZM365.405 472.961C364.628 473.247 363.765 472.85 363.478 472.073C363.191 471.296 363.589 470.433 364.366 470.146L365.405 472.961ZM342.19 478.443C342.964 478.149 343.831 478.539 344.125 479.313C344.419 480.087 344.029 480.954 343.255 481.248L342.19 478.443ZM321.241 489.755C320.47 490.058 319.599 489.68 319.296 488.909C318.992 488.138 319.371 487.267 320.142 486.963L321.241 489.755ZM298.192 495.791C298.959 495.476 299.835 495.841 300.15 496.608C300.465 497.374 300.1 498.25 299.334 498.565L298.192 495.791ZM277.566 507.747C276.806 508.076 275.923 507.726 275.594 506.966C275.264 506.206 275.614 505.323 276.374 504.994L277.566 507.747ZM254.811 514.605C255.564 514.259 256.454 514.589 256.8 515.342C257.146 516.095 256.816 516.985 256.063 517.331L254.811 514.605ZM234.685 527.479C233.941 527.844 233.043 527.538 232.677 526.794C232.312 526.05 232.619 525.152 233.362 524.786L234.685 527.479ZM212.364 535.485C213.096 535.097 214.004 535.377 214.391 536.109C214.779 536.841 214.499 537.749 213.767 538.136L212.364 535.485ZM193.034 549.566C192.315 549.979 191.399 549.731 190.986 549.013C190.573 548.295 190.82 547.378 191.538 546.965L193.034 549.566ZM171.266 559.158C171.967 558.717 172.893 558.927 173.335 559.628C173.777 560.329 173.566 561.255 172.865 561.697L171.266 559.158ZM153.24 574.686C152.56 575.159 151.625 574.992 151.152 574.312C150.679 573.632 150.846 572.697 151.526 572.224L153.24 574.686ZM132.393 586.29C133.047 585.781 133.989 585.9 134.498 586.554C135.006 587.208 134.888 588.15 134.234 588.659L132.393 586.29ZM116.133 603.584C115.51 604.13 114.562 604.067 114.016 603.444C113.471 602.821 113.533 601.873 114.156 601.327L116.133 603.584ZM96.8013 617.552C97.3872 616.966 98.337 616.967 98.9226 617.553C99.5082 618.139 99.5079 619.088 98.922 619.674L96.8013 617.552ZM82.9059 636.855C82.3635 637.481 81.4161 637.549 80.79 637.006C80.1639 636.464 80.0962 635.516 80.6387 634.89L82.9059 636.855ZM65.7953 653.405C66.2879 652.739 67.2272 652.599 67.8932 653.091C68.5593 653.584 68.7 654.523 68.2073 655.189L65.7953 653.405ZM55.0309 674.595C54.5939 675.299 53.6691 675.515 52.9653 675.078C52.2615 674.641 52.0453 673.716 52.4822 673.012L55.0309 674.595ZM40.8258 693.651C41.2028 692.913 42.1064 692.621 42.8441 692.998C43.5818 693.375 43.8742 694.278 43.4973 695.016L40.8258 693.651ZM33.6632 716.433C33.3493 717.2 32.4733 717.567 31.7067 717.253C30.9401 716.939 30.5731 716.063 30.887 715.296L33.6632 716.433ZM22.8522 737.445C23.1032 736.656 23.9467 736.219 24.7361 736.47C25.5256 736.721 25.9622 737.565 25.7112 738.354L22.8522 737.445ZM19.4426 761.151C19.2541 761.958 18.4473 762.459 17.6406 762.27C16.8339 762.082 16.3328 761.275 16.5214 760.468L19.4426 761.151ZM12.0032 783.575C12.1331 782.757 12.9017 782.199 13.7199 782.329C14.5381 782.459 15.096 783.227 14.9661 784.046L12.0032 783.575ZM12.0677 807.416C11.993 808.241 11.2637 808.85 10.4386 808.775C9.61353 808.7 9.00525 807.971 9.07996 807.146L12.0677 807.416ZM7.67743 830.77C7.70166 829.942 8.39264 829.29 9.2207 829.315C10.0488 829.339 10.7004 830.03 10.6761 830.858L7.67743 830.77ZM896.5 2C896.5 6.1183 896.45 10.1943 896.352 14.2286L893.353 14.1555C893.451 10.1459 893.5 6.09424 893.5 2L896.5 2ZM895.182 37.9393C894.582 45.9309 893.78 53.7498 892.782 61.4015L889.808 61.0137C890.798 53.4174 891.595 45.6528 892.191 37.7146L895.182 37.9393ZM889.018 84.8655C887.509 92.7439 885.781 100.434 883.842 107.943L880.937 107.193C882.86 99.7465 884.575 92.1182 886.072 84.3012L889.018 84.8655ZM877.156 130.659C874.63 138.279 871.872 145.7 868.893 152.929L866.119 151.787C869.071 144.622 871.804 137.268 874.309 129.715L877.156 130.659ZM859.131 174.397C855.554 181.564 851.747 188.531 847.719 195.307L845.141 193.774C849.131 187.061 852.903 180.158 856.447 173.057L859.131 174.397ZM834.908 215.19C830.371 221.705 825.619 228.032 820.664 234.181L818.328 232.298C823.24 226.203 827.95 219.932 832.446 213.475L834.908 215.19ZM805.186 252.117C799.828 257.927 794.279 263.567 788.551 269.049L786.477 266.881C792.161 261.441 797.667 255.845 802.981 250.083L805.186 252.117ZM770.988 284.9C764.993 290.01 758.836 294.975 752.528 299.803L750.705 297.421C756.973 292.623 763.089 287.692 769.042 282.617L770.988 284.9ZM733.385 313.738C726.933 318.208 720.349 322.557 713.641 326.794L712.039 324.258C718.712 320.042 725.262 315.716 731.676 311.272L733.385 313.738ZM693.33 339.085C686.56 343.012 679.683 346.842 672.711 350.582L671.293 347.939C678.238 344.213 685.085 340.4 691.824 336.49L693.33 339.085ZM651.614 361.495C644.611 364.991 637.526 368.409 630.368 371.758L629.096 369.041C636.233 365.702 643.296 362.294 650.274 358.811L651.614 361.495ZM608.787 381.559C601.607 384.727 594.366 387.835 587.072 390.891L585.912 388.124C593.191 385.075 600.415 381.974 607.576 378.814L608.787 381.559ZM565.171 399.858C557.872 402.782 550.53 405.662 543.154 408.506L542.074 405.707C549.44 402.867 556.77 399.992 564.056 397.074L565.171 399.858ZM521.048 416.893C513.673 419.649 506.273 422.376 498.856 425.082L497.827 422.264C505.238 419.56 512.631 416.835 519.997 414.083L521.048 416.893ZM476.627 433.12C469.212 435.78 461.789 438.426 454.366 441.064L453.361 438.237C460.783 435.599 468.203 432.955 475.614 430.296L476.627 433.12ZM432.082 448.971C424.656 451.605 417.239 454.238 409.838 456.878L408.83 454.053C416.234 451.412 423.653 448.778 431.079 446.144L432.082 448.971ZM387.57 464.87C380.153 467.551 372.762 470.245 365.405 472.961L364.366 470.146C371.731 467.428 379.128 464.731 386.55 462.048L387.57 464.87ZM343.255 481.248C335.87 484.052 328.529 486.885 321.241 489.755L320.142 486.963C327.443 484.089 334.795 481.251 342.19 478.443L343.255 481.248ZM299.334 498.565C292.01 501.578 284.751 504.635 277.566 507.747L276.374 504.994C283.577 501.875 290.853 498.81 298.192 495.791L299.334 498.565ZM256.063 517.331C248.845 520.646 241.716 524.026 234.685 527.479L233.362 524.786C240.418 521.321 247.571 517.93 254.811 514.605L256.063 517.331ZM213.767 538.136C206.736 541.856 199.821 545.663 193.034 549.566L191.538 546.965C198.358 543.043 205.304 539.22 212.364 535.485L213.767 538.136ZM172.865 561.697C166.174 565.912 159.628 570.238 153.24 574.686L151.526 572.224C157.953 567.748 164.538 563.397 171.266 559.158L172.865 561.697ZM134.234 588.659C128.016 593.491 121.978 598.463 116.133 603.584L114.156 601.327C120.048 596.166 126.131 591.157 132.393 586.29L134.234 588.659ZM98.922 619.674C93.3635 625.229 88.0202 630.952 82.9059 636.855L80.6387 634.89C85.8016 628.932 91.194 623.156 96.8013 617.552L98.922 619.674ZM68.2073 655.189C63.568 661.462 59.1713 667.927 55.0309 674.595L52.4822 673.012C56.6664 666.274 61.1088 659.742 65.7953 653.405L68.2073 655.189ZM43.4973 695.016C39.9565 701.945 36.6742 709.08 33.6632 716.433L30.887 715.296C33.9298 707.866 37.2472 700.654 40.8258 693.651L43.4973 695.016ZM25.7112 738.354C23.3619 745.744 21.2686 753.34 19.4426 761.151L16.5214 760.468C18.3649 752.581 20.4789 744.91 22.8522 737.445L25.7112 738.354ZM14.9661 784.046C13.7601 791.641 12.791 799.429 12.0677 807.416L9.07996 807.146C9.80914 799.093 10.7865 791.239 12.0032 783.575L14.9661 784.046Z" fill="#FF5D04"/>
<path d="M435.55 424.594L435.401 417.994C435.389 417.435 435.556 416.894 435.881 416.44C436.206 415.986 436.673 415.64 437.223 415.448L443.164 413.343L442.58 412.029C442.425 411.681 442.421 411.295 442.57 410.957C442.718 410.62 443.006 410.357 443.371 410.228L469.487 400.974C470.216 400.716 471.038 400.745 471.772 401.055C472.507 401.365 473.094 401.931 473.403 402.627L481.578 421.019C481.887 421.716 481.895 422.487 481.598 423.162C481.302 423.837 480.725 424.362 479.996 424.62L477.075 425.655C477.275 426.893 477.032 428.139 476.386 429.196C475.74 430.253 474.726 431.061 473.505 431.494C472.284 431.927 470.926 431.959 469.643 431.585C468.361 431.211 467.228 430.453 466.423 429.43L457.832 432.474C458.032 433.712 457.789 434.957 457.143 436.015C456.496 437.072 455.483 437.88 454.262 438.313C453.041 438.745 451.683 438.777 450.4 438.404C449.118 438.03 447.985 437.272 447.18 436.249L444.259 437.284C443.53 437.542 442.707 437.513 441.973 437.203C441.238 436.893 440.652 436.327 440.342 435.631L435.671 425.121C435.596 424.953 435.555 424.774 435.55 424.594ZM472.333 428.856C472.877 428.664 473.34 428.321 473.663 427.872C473.987 427.424 474.157 426.888 474.152 426.335C474.147 425.781 473.966 425.233 473.634 424.761C473.301 424.289 472.831 423.914 472.283 423.682C471.736 423.451 471.135 423.375 470.556 423.462C469.978 423.55 469.448 423.798 469.034 424.174C468.62 424.551 468.341 425.04 468.231 425.579C468.121 426.118 468.185 426.684 468.416 427.203C468.726 427.9 469.313 428.466 470.047 428.776C470.782 429.086 471.604 429.115 472.333 428.856ZM475.325 414.111L470.654 403.601L445.913 412.369L450.584 422.878L475.325 414.111ZM453.09 435.675C453.633 435.483 454.096 435.14 454.42 434.691C454.744 434.242 454.914 433.707 454.909 433.153C454.903 432.6 454.723 432.052 454.39 431.58C454.058 431.108 453.588 430.732 453.04 430.501C452.492 430.27 451.891 430.193 451.313 430.281C450.735 430.369 450.205 430.616 449.791 430.993C449.377 431.37 449.097 431.859 448.987 432.398C448.877 432.937 448.942 433.502 449.173 434.022C449.483 434.719 450.069 435.284 450.804 435.594C451.538 435.905 452.361 435.934 453.09 435.675ZM446.083 419.911L444.332 415.97L438.39 418.075L438.492 422.601L446.083 419.911Z" fill="#FDCAAE"/>
</svg>
