<svg width="511" height="379" viewBox="0 0 511 379" fill="none" xmlns="http://www.w3.org/2000/svg">
<g clip-path="url(#clip0_2_84074)">
<path d="M495.685 322.061C493.381 303.532 481.898 285.276 464.227 279.246C471.196 298.317 471.195 319.239 464.223 338.309C461.508 345.654 457.723 353.541 460.277 360.943C461.866 365.549 465.754 369.074 470.099 371.277C474.445 373.481 479.268 374.531 484.031 375.56L484.968 376.335C492.529 359.263 497.99 340.59 495.685 322.061Z" fill="#F0F0F0"/>
<path d="M464.052 279.596C474.343 291.127 480.738 305.607 482.331 320.979C482.733 324.282 482.611 327.628 481.971 330.894C481.245 334.054 479.685 336.963 477.454 339.317C475.418 341.554 473.077 343.606 471.62 346.299C470.895 347.688 470.472 349.215 470.378 350.78C470.284 352.344 470.523 353.911 471.077 355.377C472.363 359.065 474.898 362.072 477.479 364.926C480.345 368.095 483.371 371.341 484.589 375.542C484.737 376.051 485.518 375.793 485.371 375.284C483.252 367.975 476.156 363.823 472.772 357.24C471.193 354.168 470.531 350.602 472.011 347.359C473.305 344.523 475.718 342.405 477.799 340.158C480.009 337.893 481.631 335.122 482.522 332.086C483.327 328.864 483.577 325.528 483.262 322.222C482.673 314.767 480.915 307.452 478.052 300.543C474.83 292.64 470.279 285.347 464.596 278.979C464.244 278.585 463.702 279.205 464.052 279.596Z" fill="white"/>
<path d="M482.11 315.999C484.653 315.381 486.893 313.88 488.431 311.763C489.97 309.647 490.705 307.052 490.507 304.443C490.465 303.915 489.643 303.955 489.685 304.484C489.874 306.913 489.189 309.33 487.752 311.298C486.316 313.267 484.223 314.657 481.852 315.217C481.336 315.34 481.597 316.121 482.11 315.999Z" fill="white"/>
<path d="M478.636 338.319C474.043 335.576 470.653 331.204 469.141 326.073C468.991 325.564 468.21 325.823 468.359 326.331C469.943 331.667 473.48 336.21 478.266 339.054C478.722 339.324 479.09 338.588 478.636 338.319Z" fill="white"/>
<path d="M474.066 293.42C473.132 293.864 472.102 294.069 471.069 294.016C470.036 293.964 469.033 293.656 468.148 293.12C467.696 292.843 467.329 293.58 467.778 293.855C468.758 294.442 469.867 294.781 471.008 294.842C472.149 294.902 473.288 294.682 474.324 294.201C474.426 294.164 474.509 294.09 474.558 293.993C474.606 293.897 474.616 293.785 474.586 293.682C474.551 293.578 474.477 293.493 474.38 293.444C474.282 293.395 474.17 293.386 474.066 293.42Z" fill="white"/>
<path d="M410.364 312.34C410.642 312.521 410.919 312.701 411.197 312.889C414.919 315.336 418.435 318.082 421.712 321.098C421.969 321.328 422.226 321.564 422.476 321.8C430.294 329.152 436.678 337.891 441.305 347.574C443.143 351.429 444.684 355.417 445.917 359.506C447.619 365.152 449.014 371.41 452.383 376.029C452.729 376.515 453.105 376.979 453.508 377.418H483.95C484.019 377.383 484.088 377.355 484.158 377.321L485.373 377.376C485.324 377.161 485.269 376.939 485.22 376.723C485.193 376.598 485.158 376.473 485.13 376.348C485.109 376.265 485.088 376.182 485.074 376.105C485.068 376.077 485.061 376.05 485.054 376.029C485.04 375.952 485.019 375.883 485.005 375.814C484.699 374.57 484.385 373.327 484.061 372.084C484.061 372.077 484.061 372.077 484.054 372.07C481.56 362.604 478.254 353.262 473.636 344.719C473.497 344.462 473.358 344.198 473.205 343.941C471.102 340.102 468.688 336.442 465.989 332.996C464.504 331.114 462.926 329.308 461.259 327.585C456.943 323.143 451.956 319.407 446.479 316.514C435.561 310.75 422.921 308.541 411.253 312.062C410.954 312.153 410.662 312.243 410.364 312.34Z" fill="#F0F0F0"/>
<path d="M410.432 312.727C425.591 315.738 439.415 323.448 449.942 334.763C452.252 337.159 454.169 339.904 455.624 342.896C456.947 345.857 457.453 349.119 457.089 352.341C456.81 355.353 456.176 358.401 456.634 361.428C456.892 362.974 457.473 364.448 458.34 365.754C459.208 367.059 460.341 368.167 461.666 369.004C464.914 371.175 468.748 372.049 472.527 372.774C476.723 373.579 481.094 374.348 484.596 376.969C485.021 377.287 485.489 376.61 485.065 376.293C478.972 371.733 470.807 372.69 464.142 369.471C461.031 367.968 458.355 365.52 457.585 362.04C456.911 358.996 457.562 355.852 457.871 352.805C458.272 349.667 457.898 346.477 456.782 343.517C455.485 340.459 453.676 337.645 451.434 335.195C446.475 329.598 440.667 324.815 434.222 321.023C426.891 316.653 418.866 313.57 410.495 311.906C409.977 311.804 409.917 312.625 410.432 312.727Z" fill="white"/>
<path d="M446.767 330.92C448.426 328.896 449.311 326.349 449.265 323.733C449.218 321.116 448.244 318.601 446.514 316.638C446.163 316.241 445.531 316.769 445.883 317.165C447.496 318.991 448.404 321.334 448.442 323.77C448.48 326.207 447.646 328.576 446.091 330.452C445.753 330.86 446.432 331.326 446.767 330.92Z" fill="white"/>
<path d="M457.432 350.833C452.114 351.409 446.774 349.958 442.477 346.772C442.052 346.456 441.584 347.133 442.009 347.448C446.486 350.756 452.046 352.254 457.579 351.643C458.106 351.584 457.956 350.775 457.432 350.833Z" fill="white"/>
<path d="M426.751 317.735C426.272 318.652 425.573 319.435 424.717 320.015C423.861 320.595 422.874 320.954 421.845 321.058C421.317 321.11 421.468 321.919 421.992 321.868C423.128 321.747 424.218 321.35 425.165 320.711C426.113 320.073 426.889 319.212 427.427 318.204C427.486 318.113 427.508 318.003 427.489 317.897C427.469 317.79 427.41 317.695 427.323 317.631C427.233 317.569 427.123 317.546 427.016 317.565C426.908 317.585 426.813 317.646 426.751 317.735Z" fill="white"/>
<path d="M84.7833 0H337.034V82.8098H327.479V104.467L305.821 82.8098H84.7833V0Z" fill="#E4E4E4"/>
<path d="M330.374 74.6591H91.4426V7.7168H278.341C292.137 7.73235 305.362 13.2194 315.117 22.9741C324.872 32.7288 330.359 45.9545 330.374 59.7498V74.6591Z" fill="white"/>
<path d="M252.855 119.053H0.604736V201.862H10.1594V223.52L31.8177 201.862H252.855V119.053Z" fill="#E4E4E4"/>
<path d="M246.196 193.711H49.7242C38.4671 193.699 27.6747 189.221 19.7147 181.261C11.7547 173.301 7.27716 162.509 7.2644 151.252V126.769H246.196V193.711Z" fill="white"/>
<path d="M228.963 147.095H28.6807V150.576H228.963V147.095Z" fill="#FF9C66"/>
<path d="M228.602 159.137H28.6807V162.618H228.602V159.137Z" fill="#E6E6E6"/>
<path d="M228.406 171.179H28.6807V174.66H228.406V171.179Z" fill="#E6E6E6"/>
<path d="M168.26 54.9669L155.572 42.279C153.864 40.5717 152.885 38.2689 152.841 35.8547C152.796 33.4406 153.689 31.1031 155.332 29.3339C156.975 27.5646 159.241 26.5014 161.652 26.3678C164.062 26.2342 166.431 27.0406 168.26 28.6175C170.088 27.0409 172.457 26.2347 174.868 26.3684C177.279 26.5021 179.544 27.5652 181.187 29.3344C182.83 31.1035 183.723 33.4408 183.679 35.8548C183.634 38.2689 182.655 40.5716 180.948 42.279L168.26 54.9669ZM162.168 27.7843C160.605 27.7833 159.077 28.246 157.777 29.1138C156.478 29.9817 155.464 31.2156 154.866 32.6595C154.268 34.1033 154.112 35.6922 154.417 37.225C154.722 38.7578 155.475 40.1656 156.581 41.2702L168.26 52.9494L179.939 41.2702C180.674 40.5366 181.256 39.6654 181.654 38.7065C182.052 37.7477 182.257 36.7198 182.257 35.6817C182.257 34.6437 182.053 33.6157 181.656 32.6566C181.259 31.6975 180.676 30.8261 179.942 30.092C179.208 29.358 178.337 28.7758 177.378 28.3787C176.419 27.9815 175.391 27.7773 174.353 27.7776C173.315 27.7778 172.287 27.9827 171.328 28.3803C170.369 28.778 169.498 29.3606 168.764 30.0951L168.26 30.5994L167.755 30.0951C167.022 29.3609 166.151 28.7789 165.192 28.3823C164.233 27.9858 163.206 27.7826 162.168 27.7843Z" fill="#FF9C66"/>
<path d="M212.488 34.2088C212.097 33.8189 211.567 33.6002 211.015 33.6006C210.463 33.601 209.933 33.8206 209.543 34.211C209.152 34.6015 208.933 35.131 208.932 35.6832C208.932 36.2354 209.15 36.7653 209.54 37.1565L212.488 40.1046L215.436 37.1567C215.63 36.9633 215.784 36.7335 215.89 36.4804C215.995 36.2274 216.049 35.9561 216.049 35.6821C216.05 35.408 215.996 35.1367 215.891 34.8834C215.786 34.6302 215.633 34.4001 215.439 34.2063C215.245 34.0126 215.015 33.8589 214.762 33.7541C214.509 33.6493 214.237 33.5955 213.963 33.5957C213.689 33.5959 213.418 33.6502 213.165 33.7553C212.912 33.8605 212.682 34.0147 212.488 34.2088Z" fill="#FF9C66"/>
<path d="M200.361 34.2088C199.97 33.8183 199.44 33.599 198.887 33.5991C198.335 33.5992 197.805 33.8188 197.414 34.2095C197.023 34.6002 196.804 35.1301 196.803 35.6828C196.803 36.2354 197.022 36.7655 197.413 37.1565L200.361 40.1046L203.309 37.1567C203.503 36.9633 203.657 36.7335 203.762 36.4804C203.868 36.2274 203.922 35.9561 203.922 35.6821C203.922 35.408 203.869 35.1367 203.764 34.8834C203.659 34.6302 203.505 34.4001 203.312 34.2063C203.118 34.0126 202.888 33.8589 202.635 33.7541C202.381 33.6493 202.11 33.5955 201.836 33.5957C201.562 33.5959 201.291 33.6502 201.038 33.7553C200.785 33.8605 200.555 34.0147 200.361 34.2088Z" fill="#FF9C66"/>
<path d="M206.697 56.3131C203.593 56.3131 200.558 55.3927 197.978 53.6682C195.397 51.9437 193.385 49.4927 192.197 46.625C191.009 43.7573 190.699 40.6018 191.304 37.5575C191.91 34.5132 193.404 31.7168 195.599 29.5219C197.794 27.3271 200.591 25.8324 203.635 25.2269C206.679 24.6213 209.835 24.9321 212.702 26.1199C215.57 27.3078 218.021 29.3193 219.746 31.9001C221.47 34.481 222.39 37.5152 222.39 40.6192C222.386 44.78 220.731 48.7691 217.789 51.7113C214.846 54.6534 210.857 56.3084 206.697 56.3131ZM206.697 26.352C203.875 26.352 201.116 27.1888 198.77 28.7565C196.424 30.3242 194.595 32.5524 193.515 35.1594C192.436 37.7664 192.153 40.635 192.704 43.4026C193.254 46.1702 194.613 48.7123 196.608 50.7076C198.603 52.7029 201.146 54.0617 203.913 54.6122C206.681 55.1627 209.549 54.8802 212.156 53.8004C214.763 52.7205 216.992 50.8918 218.559 48.5456C220.127 46.1994 220.964 43.441 220.964 40.6192C220.964 38.7456 220.595 36.8904 219.878 35.1594C219.161 33.4284 218.11 31.8556 216.785 30.5308C215.46 29.2059 213.887 28.155 212.156 27.438C210.425 26.7211 208.57 26.352 206.697 26.352Z" fill="#FF9C66"/>
<path d="M245.218 56.3131C242.114 56.3131 239.08 55.3927 236.499 53.6682C233.918 51.9437 231.906 49.4927 230.719 46.625C229.531 43.7573 229.22 40.6018 229.826 37.5575C230.431 34.5132 231.926 31.7168 234.121 29.5219C236.315 27.3271 239.112 25.8324 242.156 25.2269C245.201 24.6213 248.356 24.9321 251.224 26.1199C254.091 27.3078 256.542 29.3193 258.267 31.9001C259.991 34.481 260.912 37.5152 260.912 40.6192C260.907 44.78 259.252 48.7691 256.31 51.7113C253.368 54.6534 249.379 56.3084 245.218 56.3131ZM245.218 26.352C242.396 26.352 239.638 27.1888 237.291 28.7565C234.945 30.3242 233.117 32.5524 232.037 35.1594C230.957 37.7664 230.674 40.635 231.225 43.4026C231.775 46.1702 233.134 48.7123 235.13 50.7076C237.125 52.7029 239.667 54.0617 242.435 54.6122C245.202 55.1627 248.071 54.8802 250.678 53.8004C253.285 52.7205 255.513 50.8918 257.081 48.5456C258.648 46.1994 259.485 43.441 259.485 40.6192C259.485 38.7456 259.116 36.8904 258.399 35.1594C257.682 33.4284 256.631 31.8556 255.306 30.5308C253.982 29.2059 252.409 28.155 250.678 27.438C248.947 26.7211 247.092 26.352 245.218 26.352Z" fill="#FF9C66"/>
<path d="M251.638 39.1927C253.608 39.1927 255.205 37.5958 255.205 35.6259C255.205 33.656 253.608 32.0591 251.638 32.0591C249.668 32.0591 248.071 33.656 248.071 35.6259C248.071 37.5958 249.668 39.1927 251.638 39.1927Z" fill="#FF9C66"/>
<path d="M239.511 39.1927C241.481 39.1927 243.078 37.5958 243.078 35.6259C243.078 33.656 241.481 32.0591 239.511 32.0591C237.541 32.0591 235.944 33.656 235.944 35.6259C235.944 37.5958 237.541 39.1927 239.511 39.1927Z" fill="#FF9C66"/>
<path d="M240.772 43.4727C239.316 53.5415 250.866 55.5838 249.71 43.4723C249.779 43.4641 241.237 43.4789 240.772 43.4727Z" fill="#FF9C66"/>
<path d="M201.2 45.5625C204.462 49.9478 210.102 50.3416 213.117 45.5625H201.2Z" fill="#FF9C66"/>
<path d="M405.928 369.823H397.413L393.362 336.98H405.929L405.928 369.823Z" fill="#9E616A"/>
<path d="M408.099 378.077L380.644 378.076V377.729C380.644 374.895 381.77 372.177 383.774 370.173C385.778 368.169 388.496 367.043 391.33 367.042H391.331L408.099 367.043L408.099 378.077Z" fill="#2F2E41"/>
<path d="M341.769 369.543L333.568 367.252L338.504 334.53L350.607 337.912L341.769 369.543Z" fill="#9E616A"/>
<path d="M341.639 378.077L315.196 370.688L315.29 370.354C316.053 367.624 317.868 365.309 320.338 363.918C322.807 362.528 325.728 362.175 328.458 362.937L328.458 362.937L344.608 367.45L341.639 378.077Z" fill="#2F2E41"/>
<path d="M385.783 94.7023C396.071 94.7023 404.411 86.3622 404.411 76.0743C404.411 65.7863 396.071 57.4463 385.783 57.4463C375.496 57.4463 367.156 65.7863 367.156 76.0743C367.156 86.3622 375.496 94.7023 385.783 94.7023Z" fill="#9E616A"/>
<path d="M394.6 169.314L396.077 179.423C396.077 179.423 414.705 216.452 394.487 234.626C394.487 234.626 364.273 325.74 355.641 338.007L348.423 353.109L334.532 351.026L343.146 299.161L357.685 225.085L359.843 167.27C359.843 167.27 391.647 164.998 394.6 169.314Z" fill="#2F2E41"/>
<path d="M391.079 232.341L401.302 290.289C401.302 290.289 406.754 316.868 407.209 327.09C407.663 337.313 409.48 350.489 409.48 350.489L391.079 353.442L372.906 275.504L391.079 232.341Z" fill="#2F2E41"/>
<path d="M406.069 119.052L404.746 152.783L397.758 168.24L395.168 173.971L357.685 173.517L361.547 147.393C356.095 133.308 369.044 127.629 369.044 127.629L379.948 116.009L378.982 100.994L395.395 97.8693C403.937 96.243 399.818 108.634 399.818 108.634C411.177 107.498 406.069 119.052 406.069 119.052Z" fill="#FF9C66"/>
<path d="M330.955 151.001C331.086 150.794 330.746 150.343 330.194 149.994C329.643 149.645 329.09 149.53 328.959 149.736C328.828 149.943 329.169 150.394 329.72 150.743C330.271 151.092 330.825 151.208 330.955 151.001Z" fill="#3F3D56"/>
<path d="M329.02 147.153C329.165 146.924 329.354 146.725 329.576 146.569C329.798 146.412 330.049 146.301 330.314 146.242C330.579 146.182 330.853 146.175 331.121 146.222C331.388 146.268 331.644 146.367 331.874 146.512L358.082 163.109C358.311 163.254 358.51 163.443 358.666 163.665C358.823 163.887 358.934 164.138 358.993 164.403C359.053 164.668 359.059 164.942 359.013 165.209C358.967 165.477 358.868 165.733 358.723 165.962L329.02 147.153Z" fill="#FF9C66"/>
<path d="M326.542 148.031L327.366 146.729C327.567 146.412 327.885 146.188 328.25 146.106C328.616 146.024 329 146.091 329.316 146.291L359.156 165.187C359.531 165.425 359.797 165.802 359.894 166.235C359.991 166.668 359.913 167.122 359.675 167.497L358.99 168.579L326.542 148.031Z" fill="#3F3D56"/>
<path d="M330.985 148.746L330.668 149.246L332.665 150.51L332.981 150.011L330.985 148.746Z" fill="#D0CDE1"/>
<path d="M333.73 150.485L333.414 150.984L335.411 152.248L335.727 151.749L333.73 150.485Z" fill="#D0CDE1"/>
<path d="M354.592 154.649C354.912 154.861 355.216 155.098 355.499 155.358L388.958 147.18L391.315 139.151L403.897 141.123L401.107 155.743C400.881 156.924 400.279 158 399.39 158.809C398.501 159.619 397.373 160.118 396.176 160.232L357.166 163.951C356.518 165.282 355.48 166.384 354.19 167.11C352.9 167.837 351.419 168.153 349.945 168.018C348.471 167.882 347.072 167.301 345.936 166.352C344.801 165.402 343.981 164.129 343.586 162.703C343.191 161.276 343.239 159.763 343.726 158.364C344.212 156.966 345.112 155.748 346.307 154.874C347.502 154 348.934 153.51 350.414 153.47C351.894 153.43 353.351 153.841 354.592 154.649Z" fill="#9E616A"/>
<path d="M387.944 145.52C387.709 145.138 387.56 144.709 387.506 144.263C387.452 143.817 387.494 143.365 387.631 142.937L392.4 114.797C392.769 112.529 394.023 110.5 395.886 109.154C397.749 107.809 400.07 107.257 402.339 107.62C404.608 107.983 406.641 109.232 407.991 111.091C409.341 112.951 409.899 115.27 409.542 117.54L409.313 146.472C409.306 146.921 409.203 147.364 409.01 147.769C408.817 148.175 408.539 148.534 408.195 148.822C407.85 149.111 407.448 149.322 407.015 149.44C406.582 149.559 406.128 149.583 405.685 149.511L390.106 146.971C389.662 146.899 389.24 146.732 388.867 146.482C388.494 146.231 388.179 145.903 387.944 145.52Z" fill="#FF9C66"/>
<path d="M394.609 53.0718C391.049 53.0671 387.555 54.0272 384.497 55.8499H383.149C378.176 55.8499 373.406 57.8256 369.889 61.3424C366.373 64.8591 364.397 69.6289 364.397 74.6023H374.815V96.8273H414.403V72.866C414.403 67.6162 412.318 62.5815 408.606 58.8694C404.894 55.1573 399.859 53.0718 394.609 53.0718Z" fill="#2F2E41"/>
<path d="M509.205 379H220.77C220.661 379 220.554 378.979 220.453 378.938C220.352 378.896 220.261 378.836 220.184 378.759C220.107 378.682 220.046 378.591 220.004 378.49C219.962 378.39 219.941 378.282 219.941 378.173C219.941 378.064 219.962 377.957 220.004 377.856C220.046 377.756 220.107 377.664 220.184 377.588C220.261 377.511 220.352 377.45 220.453 377.408C220.554 377.367 220.661 377.346 220.77 377.346H509.205C509.314 377.346 509.422 377.367 509.523 377.408C509.623 377.45 509.715 377.511 509.792 377.588C509.869 377.664 509.93 377.756 509.972 377.856C510.013 377.957 510.035 378.064 510.035 378.173C510.035 378.282 510.013 378.39 509.972 378.49C509.93 378.591 509.869 378.682 509.792 378.759C509.715 378.836 509.623 378.896 509.523 378.938C509.422 378.979 509.314 379 509.205 379Z" fill="#CACACA"/>
</g>
<defs>
<clipPath id="clip0_2_84074">
<rect width="509.428" height="379" fill="white" transform="translate(0.604736)"/>
</clipPath>
</defs>
</svg>
