<svg width="453" height="876" viewBox="0 0 453 876" fill="none" xmlns="http://www.w3.org/2000/svg">
<path d="M3.5 2C3.5 1.17157 2.82843 0.5 2 0.5C1.17157 0.5 0.5 1.17157 0.5 2L3.5 2ZM443.5 876L452.048 860.936L434.728 861.065L443.5 876ZM0.57852 14.617C0.58891 15.4454 1.26885 16.1085 2.09721 16.0981C2.92558 16.0877 3.58867 15.4078 3.57828 14.5794L0.57852 14.617ZM4.19722 38.9721C4.16526 38.1442 3.46828 37.4991 2.64047 37.531C1.81266 37.563 1.16749 38.26 1.19945 39.0878L4.19722 38.9721ZM2.48452 63.4931C2.54003 64.3197 3.25509 64.9447 4.08166 64.8892C4.90822 64.8337 5.53329 64.1187 5.47777 63.2921L2.48452 63.4931ZM7.48143 87.5464C7.40015 86.722 6.66593 86.1196 5.8415 86.2008C5.01707 86.2821 4.41462 87.0163 4.4959 87.8408L7.48143 87.5464ZM7.31925 112.237C7.42885 113.058 8.18338 113.635 9.00452 113.525C9.82567 113.416 10.4025 112.661 10.2929 111.84L7.31925 112.237ZM13.9194 135.669C13.7793 134.853 13.0038 134.304 12.1873 134.444C11.3708 134.584 10.8225 135.36 10.9626 136.176L13.9194 135.669ZM15.6477 160.478C15.8217 161.288 16.6193 161.803 17.4293 161.629C18.2392 161.455 18.7548 160.658 18.5808 159.848L15.6477 160.478ZM24.186 183.396C23.9759 182.595 23.156 182.116 22.3546 182.326C21.5533 182.536 21.074 183.356 21.284 184.157L24.186 183.396ZM28.0541 207.658C28.3031 208.448 29.1454 208.887 29.9356 208.638C30.7257 208.389 31.1644 207.546 30.9155 206.756L28.0541 207.658ZM38.8757 229.89C38.5852 229.114 37.7208 228.721 36.945 229.011C36.1691 229.301 35.7756 230.166 36.0661 230.942L38.8757 229.89ZM45.2686 253.59C45.602 254.349 46.487 254.693 47.2454 254.36C48.0038 254.026 48.3483 253.141 48.0149 252.383L45.2686 253.59ZM58.3968 274.248C58.0195 273.511 57.1158 273.219 56.3783 273.596C55.6407 273.973 55.3486 274.877 55.7258 275.614L58.3968 274.248ZM67.5653 297.132C67.9866 297.845 68.9063 298.082 69.6197 297.661C70.333 297.24 70.5698 296.32 70.1485 295.607L67.5653 297.132ZM83.1776 316.207C82.7137 315.521 81.7812 315.341 81.0949 315.804C80.4085 316.268 80.2282 317.201 80.6921 317.887L83.1776 316.207ZM95.0177 337.773C95.5216 338.43 96.4631 338.555 97.1207 338.051C97.7783 337.547 97.9029 336.606 97.399 335.948L95.0177 337.773ZM112.734 354.823C112.194 354.195 111.247 354.123 110.618 354.664C109.99 355.204 109.919 356.151 110.459 356.779L112.734 354.823ZM126.897 374.92C127.469 375.519 128.418 375.542 129.018 374.971C129.617 374.399 129.64 373.45 129.069 372.85L126.897 374.92ZM146.266 390.078C145.668 389.505 144.718 389.525 144.145 390.123C143.572 390.721 143.592 391.67 144.19 392.244L146.266 390.078ZM162.179 408.836C162.798 409.387 163.746 409.331 164.297 408.712C164.848 408.093 164.792 407.145 164.173 406.594L162.179 408.836ZM182.633 422.518C181.998 421.986 181.052 422.069 180.52 422.703C179.987 423.338 180.07 424.284 180.705 424.817L182.633 422.518ZM199.615 440.339C200.26 440.859 201.204 440.758 201.724 440.112C202.244 439.467 202.142 438.523 201.497 438.003L199.615 440.339ZM220.601 453.209C219.951 452.696 219.008 452.807 218.495 453.458C217.981 454.108 218.093 455.051 218.743 455.564L220.601 453.209ZM237.941 470.675C238.591 471.188 239.534 471.076 240.047 470.425C240.56 469.775 240.448 468.831 239.797 468.319L237.941 470.675ZM258.936 483.523C258.29 483.004 257.346 483.107 256.827 483.752C256.308 484.398 256.411 485.342 257.057 485.861L258.936 483.523ZM275.937 501.312C276.573 501.843 277.519 501.759 278.05 501.123C278.582 500.488 278.497 499.542 277.862 499.01L275.937 501.312ZM296.412 514.964C295.792 514.414 294.844 514.47 294.294 515.09C293.744 515.71 293.801 516.658 294.421 517.207L296.412 514.964ZM312.337 533.713C312.935 534.286 313.884 534.267 314.458 533.669C315.031 533.071 315.011 532.122 314.414 531.548L312.337 533.713ZM331.687 548.904C331.117 548.303 330.168 548.277 329.566 548.847C328.965 549.417 328.939 550.366 329.509 550.967L331.687 548.904ZM345.762 569.076C346.297 569.708 347.244 569.786 347.876 569.25C348.508 568.714 348.586 567.768 348.05 567.136L345.762 569.076ZM363.332 586.305C362.836 585.641 361.896 585.506 361.232 586.002C360.569 586.498 360.433 587.438 360.929 588.101L363.332 586.305ZM374.872 608.066C375.324 608.76 376.253 608.957 376.947 608.505C377.642 608.053 377.838 607.124 377.387 606.43L374.872 608.066ZM390.083 627.451C389.679 626.728 388.765 626.469 388.042 626.874C387.319 627.278 387.06 628.192 387.465 628.915L390.083 627.451ZM398.582 650.449C398.938 651.197 399.833 651.515 400.581 651.16C401.329 650.804 401.648 649.909 401.292 649.161L398.582 650.449ZM411.062 671.558C410.755 670.789 409.882 670.414 409.113 670.721C408.343 671.028 407.968 671.9 408.275 672.67L411.062 671.558ZM416.588 695.529C416.848 696.316 417.696 696.744 418.482 696.484C419.269 696.224 419.697 695.376 419.437 694.589L416.588 695.529ZM426.492 718.245C426.278 717.445 425.455 716.97 424.655 717.184C423.855 717.399 423.38 718.221 423.594 719.021L426.492 718.245ZM429.237 742.53C429.41 743.34 430.207 743.857 431.017 743.684C431.828 743.511 432.344 742.714 432.171 741.904L429.237 742.53ZM436.69 765.88C436.555 765.063 435.784 764.509 434.966 764.644C434.149 764.778 433.595 765.55 433.73 766.367L436.69 765.88ZM437.198 790.796C437.297 791.618 438.044 792.205 438.866 792.106C439.689 792.007 440.275 791.26 440.176 790.437L437.198 790.796ZM442.594 814.454C442.527 813.628 441.803 813.014 440.977 813.081C440.152 813.149 439.537 813.873 439.604 814.699L442.594 814.454ZM441.165 839.144C441.203 839.971 441.905 840.611 442.733 840.573C443.56 840.534 444.2 839.832 444.162 839.004L441.165 839.144ZM444.906 863.384C444.893 862.555 444.212 861.894 443.383 861.906C442.555 861.919 441.894 862.6 441.906 863.429L444.906 863.384ZM0.5 2C0.499999 6.24873 0.526307 10.4542 0.57852 14.617L3.57828 14.5794C3.52623 10.4293 3.5 6.23634 3.5 2L0.5 2ZM1.19945 39.0878C1.52035 47.3999 1.94991 55.533 2.48452 63.4931L5.47777 63.2921C4.94512 55.3611 4.51704 47.2564 4.19722 38.9721L1.19945 39.0878ZM4.4959 87.8408C5.31712 96.1707 6.25982 104.3 7.31925 112.237L10.2929 111.84C9.23811 103.938 8.29935 95.8429 7.48143 87.5464L4.4959 87.8408ZM10.9626 136.176C12.3905 144.498 13.9543 152.595 15.6477 160.478L18.5808 159.848C16.8963 152.007 15.3404 143.951 13.9194 135.669L10.9626 136.176ZM21.284 184.157C23.3993 192.226 25.6587 200.055 28.0541 207.658L30.9155 206.756C28.5349 199.201 26.289 191.418 24.186 183.396L21.284 184.157ZM36.0661 230.942C38.9851 238.739 42.0562 246.283 45.2686 253.59L48.0149 252.383C44.8252 245.128 41.7752 237.636 38.8757 229.89L36.0661 230.942ZM55.7258 275.614C59.5233 283.039 63.4743 290.205 67.5653 297.132L70.1485 295.607C66.0881 288.731 62.1663 281.619 58.3968 274.248L55.7258 275.614ZM80.6921 317.887C85.3312 324.751 90.1119 331.37 95.0177 337.773L97.399 335.948C92.5282 329.591 87.7824 323.02 83.1776 316.207L80.6921 317.887ZM110.459 356.779C115.827 363.024 121.313 369.061 126.897 374.92L129.069 372.85C123.518 367.026 118.066 361.027 112.734 354.823L110.459 356.779ZM144.19 392.244C150.109 397.92 156.113 403.44 162.179 408.836L164.173 406.594C158.131 401.22 152.156 395.726 146.266 390.078L144.19 392.244ZM180.705 424.817C186.971 430.074 193.282 435.237 199.615 440.339L201.497 438.003C195.176 432.91 188.881 427.76 182.633 422.518L180.705 424.817ZM218.743 455.564C225.143 460.613 231.559 465.646 237.941 470.675L239.797 468.319C233.403 463.279 227.007 458.262 220.601 453.209L218.743 455.564ZM257.057 485.861C263.399 490.958 269.7 496.096 275.937 501.312L277.862 499.01C271.606 493.78 265.29 488.628 258.936 483.523L257.057 485.861ZM294.421 517.207C300.484 522.588 306.463 528.078 312.337 533.713L314.414 531.548C308.509 525.883 302.501 520.366 296.412 514.964L294.421 517.207ZM329.509 550.967C335.055 556.82 340.48 562.846 345.762 569.076L348.05 567.136C342.73 560.861 337.268 554.794 331.687 548.904L329.509 550.967ZM360.929 588.101C365.733 594.526 370.386 601.171 374.872 608.066L377.387 606.43C372.864 599.479 368.173 592.78 363.332 586.305L360.929 588.101ZM387.465 628.915C391.338 635.841 395.048 643.011 398.582 650.449L401.292 649.161C397.729 641.664 393.988 634.435 390.083 627.451L387.465 628.915ZM408.275 672.67C411.213 680.035 413.988 687.649 416.588 695.529L419.437 694.589C416.818 686.652 414.022 678.981 411.062 671.558L408.275 672.67ZM423.594 719.021C425.63 726.62 427.514 734.452 429.237 742.53L432.171 741.904C430.437 733.776 428.541 725.895 426.492 718.245L423.594 719.021ZM433.73 766.367C435.032 774.284 436.191 782.423 437.198 790.796L440.176 790.437C439.164 782.023 438 773.841 436.69 765.88L433.73 766.367ZM439.604 814.699C440.254 822.646 440.776 830.792 441.165 839.144L444.162 839.004C443.771 830.619 443.247 822.438 442.594 814.454L439.604 814.699Z" fill="#FF5D04"/>
<path d="M337.712 526.855L341.316 520.828C341.621 520.318 341.749 519.745 341.683 519.184C341.617 518.623 341.361 518.099 340.947 517.682L336.489 513.142L337.726 512.184C338.054 511.93 338.259 511.576 338.298 511.2C338.336 510.823 338.204 510.455 337.931 510.177L318.334 490.22C317.787 489.663 317.002 489.33 316.151 489.295C315.301 489.26 314.454 489.526 313.798 490.034L296.488 503.437C295.832 503.945 295.42 504.653 295.343 505.406C295.266 506.159 295.53 506.895 296.077 507.453L298.269 509.685C297.432 510.74 297.006 511.995 297.056 513.254C297.106 514.512 297.631 515.701 298.547 516.634C299.463 517.567 300.718 518.191 302.115 518.406C303.512 518.622 304.971 518.417 306.262 517.825L312.709 524.39C311.872 525.445 311.445 526.7 311.495 527.959C311.546 529.217 312.07 530.406 312.986 531.339C313.902 532.272 315.158 532.896 316.555 533.111C317.952 533.327 319.411 533.122 320.702 532.53L322.894 534.762C323.441 535.319 324.226 535.652 325.077 535.686C325.927 535.721 326.774 535.456 327.43 534.948L337.321 527.289C337.48 527.166 337.613 527.019 337.712 526.855ZM301.029 514.712C300.621 514.297 300.368 513.778 300.3 513.222C300.233 512.666 300.354 512.098 300.65 511.589C300.946 511.08 301.402 510.654 301.962 510.363C302.521 510.073 303.158 509.932 303.792 509.958C304.427 509.984 305.03 510.176 305.525 510.51C306.021 510.843 306.387 511.303 306.576 511.832C306.766 512.361 306.771 512.934 306.591 513.48C306.411 514.026 306.054 514.519 305.565 514.898C304.909 515.406 304.063 515.672 303.212 515.637C302.362 515.602 301.576 515.269 301.029 514.712ZM305.969 499.794L315.861 492.135L334.426 511.041L324.534 518.7L305.969 499.794ZM315.469 529.417C315.061 529.002 314.807 528.483 314.74 527.927C314.672 527.371 314.794 526.803 315.09 526.294C315.385 525.785 315.842 525.359 316.401 525.068C316.96 524.778 317.598 524.637 318.232 524.663C318.866 524.689 319.469 524.881 319.965 525.214C320.46 525.548 320.826 526.008 321.016 526.537C321.206 527.066 321.211 527.639 321.031 528.185C320.851 528.731 320.494 529.224 320.005 529.603C319.349 530.111 318.502 530.376 317.652 530.342C316.801 530.307 316.016 529.974 315.469 529.417ZM330.307 517.929L334.016 515.056L338.474 519.597L336.003 523.729L330.307 517.929Z" fill="#FDCAAE"/>
</svg>
