<svg width="78" height="78" viewBox="0 0 78 78" fill="none" xmlns="http://www.w3.org/2000/svg">
<path d="M75 60C73.3431 60 72 58.6569 72 57C72 55.3431 73.3431 54 75 54C76.6569 54 78 55.3431 78 57C78 58.6569 76.6569 60 75 60Z" fill="white" fill-opacity="0.2"/>
<path d="M75 78C73.3431 78 72 76.6569 72 75C72 73.3431 73.3431 72 75 72C76.6569 72 78 73.3431 78 75C78 76.6569 76.6569 78 75 78Z" fill="white" fill-opacity="0.2"/>
<path d="M57 24C55.3431 24 54 22.6569 54 21C54 19.3431 55.3431 18 57 18C58.6569 18 60 19.3431 60 21C60 22.6569 58.6569 24 57 24Z" fill="white" fill-opacity="0.2"/>
<path d="M57 42C55.3431 42 54 40.6569 54 39C54 37.3431 55.3431 36 57 36C58.6569 36 60 37.3431 60 39C60 40.6569 58.6569 42 57 42Z" fill="white" fill-opacity="0.2"/>
<path d="M57 60C55.3431 60 54 58.6569 54 57C54 55.3431 55.3431 54 57 54C58.6569 54 60 55.3431 60 57C60 58.6569 58.6569 60 57 60Z" fill="white" fill-opacity="0.2"/>
<path d="M57 78C55.3431 78 54 76.6569 54 75C54 73.3431 55.3431 72 57 72C58.6569 72 60 73.3431 60 75C60 76.6569 58.6569 78 57 78Z" fill="white" fill-opacity="0.2"/>
<path d="M39 24C37.3431 24 36 22.6569 36 21C36 19.3431 37.3431 18 39 18C40.6569 18 42 19.3431 42 21C42 22.6569 40.6569 24 39 24Z" fill="white" fill-opacity="0.2"/>
<path d="M39 42C37.3431 42 36 40.6569 36 39C36 37.3431 37.3431 36 39 36C40.6569 36 42 37.3431 42 39C42 40.6569 40.6569 42 39 42Z" fill="white" fill-opacity="0.2"/>
<path d="M39 60C37.3431 60 36 58.6569 36 57C36 55.3431 37.3431 54 39 54C40.6569 54 42 55.3431 42 57C42 58.6569 40.6569 60 39 60Z" fill="white" fill-opacity="0.2"/>
<path d="M39 78C37.3431 78 36 76.6569 36 75C36 73.3431 37.3431 72 39 72C40.6569 72 42 73.3431 42 75C42 76.6569 40.6569 78 39 78Z" fill="white" fill-opacity="0.2"/>
<path d="M21 6C19.3431 6 18 4.65685 18 3C18 1.34315 19.3431 0 21 0C22.6569 0 24 1.34315 24 3C24 4.65685 22.6569 6 21 6Z" fill="white" fill-opacity="0.2"/>
<path d="M21 24C19.3431 24 18 22.6569 18 21C18 19.3431 19.3431 18 21 18C22.6569 18 24 19.3431 24 21C24 22.6569 22.6569 24 21 24Z" fill="white" fill-opacity="0.2"/>
<path d="M21 42C19.3431 42 18 40.6569 18 39C18 37.3431 19.3431 36 21 36C22.6569 36 24 37.3431 24 39C24 40.6569 22.6569 42 21 42Z" fill="white" fill-opacity="0.2"/>
<path d="M21 60C19.3431 60 18 58.6569 18 57C18 55.3431 19.3431 54 21 54C22.6569 54 24 55.3431 24 57C24 58.6569 22.6569 60 21 60Z" fill="white" fill-opacity="0.2"/>
<path d="M21 78C19.3431 78 18 76.6569 18 75C18 73.3431 19.3431 72 21 72C22.6569 72 24 73.3431 24 75C24 76.6569 22.6569 78 21 78Z" fill="white" fill-opacity="0.2"/>
<path d="M3 6C1.34315 6 0 4.65685 0 3C0 1.34315 1.34315 0 3 0C4.65685 0 6 1.34315 6 3C6 4.65685 4.65685 6 3 6Z" fill="white" fill-opacity="0.2"/>
<path d="M3 24C1.34315 24 0 22.6569 0 21C0 19.3431 1.34315 18 3 18C4.65685 18 6 19.3431 6 21C6 22.6569 4.65685 24 3 24Z" fill="white" fill-opacity="0.2"/>
<path d="M3 42C1.34315 42 0 40.6569 0 39C0 37.3431 1.34315 36 3 36C4.65685 36 6 37.3431 6 39C6 40.6569 4.65685 42 3 42Z" fill="white" fill-opacity="0.2"/>
<path d="M3 60C1.34315 60 0 58.6569 0 57C0 55.3431 1.34315 54 3 54C4.65685 54 6 55.3431 6 57C6 58.6569 4.65685 60 3 60Z" fill="white" fill-opacity="0.2"/>
<path d="M3 78C1.34315 78 0 76.6569 0 75C0 73.3431 1.34315 72 3 72C4.65685 72 6 73.3431 6 75C6 76.6569 4.65685 78 3 78Z" fill="white" fill-opacity="0.2"/>
</svg>
